<?xml version="1.0" encoding="UTF-8"?>
<svg version="1.1" xmlns="http://www.w3.org/2000/svg" width="512" height="512">
<path d="M0 0 C1.68734001 -0.02409439 1.68734001 -0.02409439 3.4087677 -0.04867554 C8.55553395 -0.09304366 13.70221105 -0.13462993 18.84912109 -0.15722656 C21.56626083 -0.17056102 24.28264865 -0.19840273 26.99951172 -0.23925781 C30.91070535 -0.29807059 34.82153356 -0.31588854 38.7331543 -0.33056641 C39.94787918 -0.35323578 41.16260406 -0.37590515 42.41413879 -0.39926147 C50.80184134 -0.3781875 50.80184134 -0.3781875 54.80029297 2.41308594 C58.36918866 7.86531274 58.90267489 12.10076171 58.81518555 18.55615234 C58.81235565 19.34813522 58.80952576 20.1401181 58.80661011 20.95610046 C58.79546167 23.47268108 58.77036727 25.98889899 58.74487305 28.50537109 C58.73483633 30.21695448 58.72571169 31.92854347 58.7175293 33.64013672 C58.69724575 37.82463191 58.65808787 42.00834798 58.61987305 46.19287109 C69.83987305 46.19287109 81.05987305 46.19287109 92.61987305 46.19287109 C92.56766602 42.05691406 92.56766602 42.05691406 92.5144043 37.83740234 C92.49099222 35.15992264 92.47278505 32.48245444 92.45507812 29.80493164 C92.44001358 27.94745764 92.41955796 26.09001908 92.39355469 24.23266602 C92.35706846 21.5591557 92.34012335 18.88611665 92.3269043 16.21240234 C92.31142044 15.38513138 92.29593658 14.55786041 92.27998352 13.70552063 C92.27863629 9.06539348 92.50710019 5.89809332 95.61987305 2.19287109 C98.8219344 0.17913257 101.37181703 -0.07232769 105.11938477 -0.11352539 C106.2208786 -0.12951279 107.32237244 -0.14550018 108.45724487 -0.16197205 C109.64270905 -0.16733475 110.82817322 -0.17269745 112.04956055 -0.17822266 C113.27264923 -0.18725113 114.49573792 -0.1962796 115.75588989 -0.20558167 C118.34317576 -0.22008917 120.93049836 -0.22897213 123.51782227 -0.23266602 C127.4730416 -0.24456324 131.42670166 -0.29374927 135.3815918 -0.34423828 C137.8959071 -0.35370234 140.41023198 -0.36093746 142.92456055 -0.36572266 C144.69668411 -0.39502113 144.69668411 -0.39502113 146.50460815 -0.4249115 C155.66107973 -0.37467622 155.66107973 -0.37467622 159.35083008 2.6027832 C163.15240317 6.94223757 162.75149424 10.37350443 162.7175293 15.91943359 C162.71540688 17.21365738 162.71540688 17.21365738 162.71324158 18.5340271 C162.70763492 21.2953434 162.69508132 24.05657922 162.68237305 26.81787109 C162.6773589 28.68766159 162.67279585 30.55745336 162.66870117 32.42724609 C162.65851334 37.01584387 162.63893927 41.60426717 162.61987305 46.19287109 C173.83987305 46.19287109 185.05987305 46.19287109 196.61987305 46.19287109 C196.58506836 43.59154297 196.55026367 40.99021484 196.5144043 38.31005859 C196.49097814 35.77816871 196.47277902 33.2462911 196.45507812 30.71435547 C196.44003309 28.96071936 196.41959201 27.20712062 196.39355469 25.45361328 C196.35698184 22.926501 196.34010384 20.39988813 196.3269043 17.87255859 C196.31142044 17.09419647 196.29593658 16.31583435 196.27998352 15.5138855 C196.27850246 10.67502082 196.89340071 7.35734329 199.61987305 3.19287109 C202.78235903 0.24218201 204.95006001 -0.18780749 209.22705078 -0.21118164 C210.35179306 -0.22386581 211.47653534 -0.23654999 212.63536072 -0.24961853 C213.84583572 -0.24668289 215.05631073 -0.24374725 216.3034668 -0.24072266 C217.5511232 -0.24596451 218.7987796 -0.25120636 220.08424377 -0.25660706 C222.72314993 -0.26303152 225.36119169 -0.26312378 228 -0.25317383 C231.3740061 -0.24168863 234.74696487 -0.26188988 238.1208334 -0.29109097 C241.34838293 -0.31389846 244.57585557 -0.30698437 247.8034668 -0.30322266 C249.01191757 -0.31445663 250.22036835 -0.32569061 251.46543884 -0.33726501 C252.59333328 -0.32788406 253.72122772 -0.31850311 254.88330078 -0.30883789 C255.87273178 -0.30867172 256.86216278 -0.30850555 257.88157654 -0.30833435 C261.42645264 0.34050378 263.06338723 1.69032561 265.61987305 4.19287109 C267.32710544 7.03560359 267.87123809 9.13006038 267.88056946 12.42990112 C267.88765427 13.26814423 267.89473907 14.10638733 267.90203857 14.97003174 C267.89956116 15.88129822 267.89708374 16.7925647 267.89453125 17.73144531 C267.90219765 19.18090042 267.90219765 19.18090042 267.91001892 20.65963745 C267.92392492 23.85567408 267.92295725 27.05149529 267.9206543 30.24755859 C267.92454092 32.46949341 267.92887552 34.69142749 267.93363953 36.9133606 C267.94110409 41.5721477 267.9408089 46.23085903 267.93554688 50.88964844 C267.92975463 56.85728249 267.94667637 62.82460594 267.96989155 68.79218864 C267.98463056 73.38186454 267.9855003 77.97146568 267.98238182 82.56116104 C267.98289503 84.76116679 267.98813277 86.96117672 267.99819374 89.16115952 C268.0105426 92.23948022 268.00377524 95.31719664 267.9921875 98.39550781 C267.99983124 99.30272583 268.00747498 100.20994385 268.01535034 101.14465332 C267.97343294 106.18768083 267.66440265 109.95890395 264.61987305 114.19287109 C259.22537657 117.79382718 254.25034648 117.61822891 247.99891663 117.58055115 C246.39379917 117.58862945 246.39379917 117.58862945 244.75625509 117.59687096 C241.17039425 117.61117909 237.58490106 117.60403956 233.99902344 117.59692383 C231.42824506 117.60262587 228.85746922 117.60958948 226.28669739 117.61772156 C220.02864149 117.63490799 213.77068601 117.63574993 207.51261265 117.63050865 C202.42556256 117.62646548 197.33854213 117.62791225 192.25149345 117.63325691 C191.52718281 117.63400533 190.80287216 117.63475376 190.05661271 117.63552486 C188.58512803 117.63705635 187.11364335 117.6385947 185.64215868 117.64013983 C171.8463399 117.65386426 158.05057786 117.64842755 144.25476038 117.63695461 C131.63715472 117.6270219 119.01969571 117.63996361 106.40211267 117.6638888 C93.44176143 117.68827853 80.48147849 117.69788802 67.52110475 117.69123608 C60.24666768 117.68774362 52.97234338 117.68997766 45.69792366 117.70748711 C38.85819982 117.72374623 32.0187607 117.71902941 25.17904472 117.70018196 C22.66800364 117.69648891 20.15694189 117.69962526 17.6459198 117.71006775 C14.2195591 117.72322956 10.79413335 117.71177152 7.36781311 117.69407654 C6.37286727 117.70368154 5.37792142 117.71328655 4.3528257 117.72318262 C-1.73229166 117.65847142 -5.46548864 116.88506432 -10.38012695 113.19287109 C-12.34992631 110.44634553 -12.63333712 108.21581892 -12.65428162 104.87991333 C-12.66425674 104.02484192 -12.67423187 103.16977051 -12.68450928 102.28878784 C-12.68517395 101.35881989 -12.68583862 100.42885193 -12.68652344 99.47070312 C-12.69484695 98.48489258 -12.70317047 97.49908203 -12.71174622 96.48339844 C-12.73585443 93.22245339 -12.74461915 89.96170832 -12.7512207 86.70068359 C-12.76018597 84.43390848 -12.7693078 82.16713399 -12.77857971 79.90036011 C-12.7950742 75.14742596 -12.80277075 70.39456229 -12.80566406 65.64160156 C-12.8110501 59.55273653 -12.84873806 53.46453421 -12.89440823 47.3758564 C-12.9241562 42.69352806 -12.93138713 38.01135979 -12.93239021 33.32894516 C-12.93659651 31.08425738 -12.9490471 28.8395693 -12.96990776 26.59497452 C-12.99677581 23.45409697 -12.99200975 20.31476207 -12.97949219 17.17382812 C-12.99432648 16.24790863 -13.00916077 15.32198914 -13.02444458 14.36801147 C-12.97495771 10.00551043 -12.76467983 7.09780047 -9.96766663 3.63156128 C-6.39503744 0.26444934 -4.79252928 0.06206359 0 0 Z " fill="#000000" transform="translate(128.380126953125,-0.19287109375)"/>
<path d="M0 0 C46.86 0 93.72 0 142 0 C142.33 10.23 142.66 20.46 143 31 C143.37570373 37.09740829 143.77075013 43.16898775 144.3125 49.25 C144.37624817 49.98939819 144.43999634 50.72879639 144.50567627 51.49060059 C145.74444451 65.75288922 147.51043234 79.89764582 150 94 C150.17756836 95.00885254 150.35513672 96.01770508 150.53808594 97.05712891 C154.19302195 117.23745744 159.61952094 137.22242355 167.91748047 156.01538086 C169.18006246 158.87710995 170 160.82936871 170 164 C104.66 164 39.32 164 -28 164 C-27.26587228 160.32936139 -26.5506822 157.59353447 -25.1796875 154.2109375 C-5.58937896 104.72347898 -1.95101803 52.6774868 0 0 Z " fill="#000000" transform="translate(185,209)"/>
<path d="M0 0 C1.08411663 -0.00644889 2.16823326 -0.01289778 3.28520191 -0.0195421 C4.47565179 -0.01644489 5.66610168 -0.01334769 6.89262581 -0.01015663 C8.15771134 -0.01468774 9.42279688 -0.01921886 10.72621834 -0.02388728 C14.24011132 -0.03613671 17.75390923 -0.03585454 21.26781869 -0.03349853 C25.0565979 -0.03309085 28.84534644 -0.04412476 32.6341114 -0.05361366 C40.05782446 -0.0702351 47.48150576 -0.07572372 54.90523587 -0.07683842 C60.93865639 -0.07778832 66.97206642 -0.0818957 73.00548363 -0.08823967 C90.10609618 -0.10585493 107.20668363 -0.11507806 124.30730532 -0.11357872 C125.229436 -0.11349881 126.15156667 -0.1134189 127.1016407 -0.11333656 C128.02489541 -0.1132548 128.94815012 -0.11317304 129.89938225 -0.1130888 C144.86512654 -0.11227574 159.83077022 -0.13141769 174.79648541 -0.1596133 C190.15803678 -0.18832663 205.51953905 -0.20215446 220.88111794 -0.20042574 C229.5075646 -0.19976132 238.13390578 -0.20527645 246.76032829 -0.22678185 C254.10455353 -0.24497324 261.44862548 -0.24935783 268.79286347 -0.235763 C272.54048504 -0.22922304 276.28781235 -0.22915281 280.03540611 -0.2464695 C284.09708598 -0.26504461 288.15808157 -0.25267275 292.21977425 -0.23720741 C293.99875691 -0.2526381 293.99875691 -0.2526381 295.81367862 -0.26838052 C302.05219755 -0.21570664 306.00137567 -0.0464847 310.68318367 4.25726891 C313.05973728 7.82209932 313.02211916 10.4351798 313.05427742 14.55805016 C313.06330589 15.27204475 313.07233437 15.98603935 313.08163643 16.72167015 C313.09613403 18.23211034 313.10502447 19.74261327 313.10872078 21.25311852 C313.12059098 23.55181868 313.16974944 25.84780934 313.22029305 28.14594078 C313.2297612 29.61663086 313.23699436 31.08733737 313.24177742 32.55805016 C313.26130974 33.239506 313.28084206 33.92096184 313.30096626 34.62306786 C313.2487616 40.21095661 311.48385186 42.4694977 307.68318367 46.25726891 C305.15357127 47.5220751 303.41122283 47.38495737 300.57843494 47.38869667 C299.49071692 47.39253782 298.4029989 47.39637896 297.28231972 47.4003365 C295.47521034 47.39903678 295.47521034 47.39903678 293.6315937 47.3977108 C292.35934435 47.40068192 291.08709499 47.40365304 289.77629262 47.4067142 C286.23316934 47.41480259 282.69006629 47.41657479 279.14693487 47.41731167 C275.3302006 47.41915904 271.51347691 47.42670477 267.69674873 47.43344688 C259.34555957 47.44704385 250.99437519 47.45305706 242.64317679 47.45745754 C237.43122871 47.4602177 232.21928249 47.46445464 227.00733566 47.46896172 C212.58447034 47.48115624 198.16160652 47.49145514 183.73873615 47.49483681 C182.81516949 47.49505637 181.89160284 47.49527594 180.94004931 47.49550216 C180.01423903 47.49572044 179.08842876 47.49593871 178.13456362 47.49616361 C176.25843632 47.49660708 174.38230902 47.49705364 172.50618172 47.49750328 C171.57555246 47.49772471 170.64492321 47.49794614 169.68609307 47.49817428 C154.60316951 47.50212313 139.52029424 47.51957897 124.43738934 47.5428628 C108.96178012 47.56656054 93.48619515 47.57903794 78.01056749 47.58020473 C69.31762871 47.58112238 60.62475284 47.58689747 51.93183136 47.60502434 C44.5300942 47.62040407 37.12843939 47.62555842 29.7266893 47.61728624 C25.94887182 47.61337213 22.17122028 47.61434617 18.39342308 47.62834358 C14.30073626 47.64336929 10.20842541 47.63523858 6.11572456 47.62476158 C4.91767714 47.63281799 3.71962972 47.64087439 2.48527783 47.64917493 C1.38973657 47.64258508 0.2941953 47.63599524 -0.83454418 47.6292057 C-2.25174298 47.63010134 -2.25174298 47.63010134 -3.69757205 47.63101506 C-6.84765082 47.18152288 -8.73541053 46.08476202 -11.31681633 44.25726891 C-13.88992128 40.8246788 -13.63935221 36.95140515 -13.65275383 32.82367516 C-13.65941063 32.10872383 -13.66606743 31.39377251 -13.67292595 30.65715599 C-13.68302803 29.14847948 -13.68774373 27.6397585 -13.6874218 26.1310482 C-13.69179579 23.8305722 -13.72813831 21.5320152 -13.76603508 19.23187828 C-13.7719038 17.76248377 -13.77587283 16.29308019 -13.77775383 14.82367516 C-13.79212486 14.14019508 -13.8064959 13.45671501 -13.82130241 12.75252342 C-13.7885084 9.30220138 -13.37980125 7.35810875 -11.53800774 4.40936852 C-7.85288952 0.83887861 -5.09497995 0.00766122 0 0 Z " fill="#000000" transform="translate(106.31681632995605,464.74273109436035)"/>
<path d="M0 0 C1.07078387 -0.00467997 2.14156775 -0.00935994 3.24479961 -0.01418173 C6.83300344 -0.0261482 10.42082653 -0.01666773 14.0090332 -0.00723267 C16.58143334 -0.01129762 19.15383173 -0.01663906 21.72622681 -0.02316284 C27.98796463 -0.03649652 34.24959453 -0.0336241 40.51133657 -0.02492492 C45.60077757 -0.01814733 50.69018834 -0.01723197 55.77963257 -0.02049637 C56.50423194 -0.02095607 57.2288313 -0.02141577 57.97538823 -0.0218894 C59.44743865 -0.02284858 60.91948905 -0.02382122 62.39153945 -0.02480717 C76.19210072 -0.03335999 89.99260219 -0.02352864 103.79315364 -0.00740607 C115.63239605 0.00599702 127.4715502 0.0036689 139.31079102 -0.01016235 C153.06226587 -0.02622008 166.81368832 -0.03253603 180.56517124 -0.02332556 C182.0317796 -0.02236992 183.49838796 -0.02142681 184.96499634 -0.02049637 C186.04737037 -0.01980213 186.04737037 -0.01980213 187.15161055 -0.01909386 C192.23441781 -0.01650455 197.3171918 -0.0208737 202.3999939 -0.02793503 C209.2421414 -0.03723167 216.0841194 -0.03060439 222.92625046 -0.01325226 C225.43932188 -0.00928106 227.95240731 -0.01043223 230.46547318 -0.01704025 C233.89204885 -0.02522049 237.31808757 -0.01497605 240.74462891 0 C241.74248759 -0.00669217 242.74034628 -0.01338433 243.76844311 -0.02027929 C249.03663452 0.02447533 252.85705276 0.34516431 257.37231445 3.38095093 C260.27622044 7.7000225 260.75618075 11.21378715 260.77075195 16.35360718 C260.77461914 17.66522827 260.77848633 18.97684937 260.7824707 20.32821655 C260.77618652 21.00408813 260.76990234 21.67995972 260.76342773 22.37631226 C260.74732827 24.44167877 260.76332704 26.50509684 260.7824707 28.57040405 C260.77860352 29.88073608 260.77473633 31.19106812 260.77075195 32.54110718 C260.76736816 33.73357056 260.76398438 34.92603394 260.76049805 36.15463257 C260.22875635 40.57410838 258.70097292 43.21837477 255.37231445 46.13095093 C252.19751023 48.11520357 249.61234378 48.50630894 245.95662117 48.50958538 C245.04804867 48.51280983 244.13947617 48.51603427 243.20337117 48.51935643 C242.20387373 48.51780783 241.2043763 48.51625923 240.17459106 48.5146637 C239.11383201 48.51692925 238.05307295 48.51919481 236.96016967 48.52152902 C233.38806769 48.52788428 229.81600351 48.52703868 226.24389648 48.5262146 C223.69002228 48.52920514 221.13614854 48.53260742 218.58227539 48.53639221 C212.35458328 48.54432639 206.12690513 48.54744733 199.89920844 48.54800459 C194.83782211 48.54847947 189.7764389 48.5505328 184.71505356 48.55370522 C170.37034735 48.56251353 156.02564862 48.56712432 141.68093969 48.56637474 C140.90733067 48.56633479 140.13372164 48.56629483 139.33666992 48.56625366 C138.56211814 48.56621278 137.78756635 48.5661719 136.9895433 48.56612978 C124.43510459 48.56572328 111.88069586 48.57529341 99.32626583 48.58939203 C86.44061316 48.60374862 73.55497513 48.61066261 60.66931427 48.60979825 C53.43293293 48.60946603 46.19658303 48.61222413 38.96020889 48.6229763 C32.15589845 48.63302156 25.3516655 48.63275329 18.54734802 48.62545967 C16.04675576 48.62441079 13.54615941 48.62679462 11.04557419 48.63282013 C7.63830541 48.64050008 4.23126866 48.63592169 0.82400513 48.62818909 C-0.17103086 48.63333265 -1.16606685 48.63847621 -2.19125545 48.64377564 C-8.5800756 48.6116228 -12.62030261 48.30622328 -17.40307617 43.71908569 C-20.08131271 40.25301303 -20.2457564 37.35269319 -20.22143555 32.97079468 C-20.22147583 32.28086929 -20.22151611 31.59094391 -20.22155762 30.88011169 C-20.21622553 29.43034693 -20.19874167 27.98058063 -20.16967773 26.53109741 C-20.12772708 24.32063947 -20.12862233 22.11322544 -20.13549805 19.9024353 C-20.04362032 7.51305721 -20.04362032 7.51305721 -16.62768555 3.38095093 C-11.19833827 -0.19796375 -6.27293423 -0.0420696 0 0 Z " fill="#000000" transform="translate(135.627685546875,394.6190490722656)"/>
<path d="M0 0 C77.22 0 154.44 0 234 0 C234 38 234 38 231 44 C226.2880289 48.27022381 221.63253494 48.14686489 215.55534363 48.14044189 C214.68313354 48.14341302 213.81092346 48.14638414 212.91228276 48.1494453 C209.9782147 48.15814399 207.04418738 48.15964153 204.11010742 48.16113281 C202.01105156 48.16576014 199.91199654 48.17078469 197.8129425 48.17617798 C192.10215593 48.18931183 186.39138113 48.19574881 180.68058181 48.20018864 C177.1144029 48.20311766 173.54822723 48.20722214 169.98204994 48.21169281 C158.82919332 48.22537009 147.67634407 48.23503572 136.52347964 48.2388947 C123.63997796 48.24337672 110.7565823 48.2609304 97.87311286 48.2898953 C87.92059714 48.31149572 77.96811129 48.3215981 68.01557237 48.32293582 C62.06854417 48.32398499 56.12161561 48.32991659 50.17461205 48.34775543 C44.58091321 48.3642078 38.98738922 48.36640536 33.39367485 48.35761642 C31.34017723 48.35684454 29.28667032 48.3612086 27.23319626 48.37107468 C24.43045734 48.38375132 21.62834166 48.37794061 18.8256073 48.36749268 C18.01246777 48.37554908 17.19932824 48.38360548 16.36154813 48.39190602 C11.52904737 48.34975695 8.10391445 47.81669914 4 45 C0 39 0 39 0 0 Z " fill="#000000" transform="translate(139,139)"/>
</svg>
