<?xml version="1.0" encoding="UTF-8"?>
<svg version="1.1" xmlns="http://www.w3.org/2000/svg" width="512" height="512">
<path d="M0 0 C24.83732535 21.29727639 42.46993285 51.58869594 45.47467041 84.57739258 C45.7629632 89.32673642 45.77296584 94.07083734 45.72998047 98.82714844 C45.7254184 99.9054895 45.7254184 99.9054895 45.72076416 101.00561523 C45.64855921 112.58536304 44.72200211 123.47127988 41.29248047 134.57714844 C41.08349121 135.28645508 40.87450195 135.99576172 40.65917969 136.7265625 C34.74167516 156.43384725 24.52686685 172.93041508 10.52392578 187.9465332 C-6.14415236 205.92242333 -15.94510422 225.28990249 -23.70751953 248.57714844 C-35.58751953 248.57714844 -47.46751953 248.57714844 -59.70751953 248.57714844 C-59.06096554 240.81850051 -58.32299562 233.25969117 -57.14111328 225.59204102 C-56.98651642 224.56777008 -56.83191956 223.54349915 -56.67263794 222.4881897 C-56.1674705 219.14872566 -55.65647459 215.81018605 -55.14501953 212.47167969 C-54.78988668 210.13713577 -54.43499137 207.8025557 -54.08032227 205.46794128 C-53.33987443 200.60021037 -52.59651628 195.73293532 -51.85107422 190.8659668 C-50.89379945 184.61430962 -49.94396301 178.36154841 -48.9962616 172.10843372 C-48.26664199 167.29978614 -47.5331104 162.49174175 -46.79837036 157.68387413 C-46.44627638 155.37666127 -46.09542487 153.06925846 -45.74581909 150.76166725 C-45.25917749 147.55345791 -44.76728164 144.3460987 -44.27392578 141.13891602 C-44.12948029 140.17953629 -43.98503479 139.22015656 -43.83621216 138.23170471 C-43.70165619 137.36418579 -43.56710022 136.49666687 -43.4284668 135.6028595 C-43.31269791 134.84506101 -43.19692902 134.08726252 -43.07765198 133.30650043 C-42.70751953 131.57714844 -42.70751953 131.57714844 -41.70751953 130.57714844 C-38.39896875 130.4411806 -35.09703825 130.32919793 -31.78564453 130.32324219 C-27.70287203 130.18064535 -26.07949189 129.86418222 -22.73095703 127.28027344 C-20.41470836 124.20828996 -20.41470836 124.20828996 -20.08251953 120.57714844 C-20.06962891 119.93777344 -20.05673828 119.29839844 -20.04345703 118.63964844 C-21.16248732 115.16407202 -22.80920248 113.80089311 -25.70751953 111.57714844 C-29.35300232 110.82503038 -32.9490666 110.89406045 -36.66064453 110.93017578 C-37.76525024 110.92141418 -38.86985596 110.91265259 -40.00793457 110.90362549 C-43.65819613 110.88162414 -47.30724572 110.8961883 -50.95751953 110.91308594 C-53.49430575 110.90971806 -56.0310904 110.90486567 -58.56787109 110.89859009 C-63.88412327 110.89121767 -69.19994133 110.90145952 -74.51611328 110.92529297 C-80.65631599 110.95250338 -86.79568853 110.94368859 -92.93587112 110.91616094 C-98.85034324 110.89070977 -104.76455811 110.89343805 -110.67907715 110.90806961 C-113.19250607 110.91140648 -115.70595615 110.90730675 -118.21936035 110.89567184 C-121.73161035 110.8829815 -125.24226356 110.90231799 -128.75439453 110.93017578 C-129.79454712 110.92005463 -130.83469971 110.90993347 -131.90637207 110.89950562 C-137.8265403 110.98473742 -137.8265403 110.98473742 -142.85058594 113.98867798 C-144.63960935 116.48248511 -145.39324028 117.56539918 -145.33251953 120.57714844 C-145.34541016 121.21652344 -145.35830078 121.85589844 -145.37158203 122.51464844 C-144.27541695 125.91920823 -142.5152279 127.41057033 -139.70751953 129.57714844 C-136.9515459 130.26774044 -134.28946456 130.32205501 -131.45751953 130.32714844 C-123.78184386 130.50282411 -123.78184386 130.50282411 -122.70751953 131.57714844 C-122.40710976 132.9996385 -122.16269281 134.43401871 -121.94187927 135.87101746 C-121.79746399 136.79769226 -121.65304871 137.72436707 -121.5042572 138.67912292 C-121.34888992 139.70403336 -121.19352264 140.72894379 -121.03344727 141.78491211 C-120.86749054 142.85806671 -120.70153381 143.93122131 -120.5305481 145.03689575 C-119.97986504 148.60567 -119.43530084 152.17534712 -118.89111328 155.74511719 C-118.51163091 158.21799733 -118.13191297 160.69084134 -117.75196838 163.16365051 C-116.95489189 168.35779219 -116.16078617 173.55237988 -115.36889648 178.74731445 C-114.4544393 184.74592923 -113.53377578 190.74356701 -112.60987705 196.74073428 C-111.72107495 202.51140966 -110.83733167 208.2828497 -109.95567513 214.05462074 C-109.58023893 216.50881765 -109.20344891 218.96280785 -108.82528496 221.41658592 C-108.29658542 224.85121576 -107.7736454 228.28667493 -107.25219727 231.72241211 C-107.09480576 232.73720139 -106.93741425 233.75199066 -106.7752533 234.79753113 C-106.63365784 235.73830505 -106.49206238 236.67907898 -106.34617615 237.64836121 C-106.22211112 238.4600838 -106.09804609 239.27180639 -105.97022152 240.10812664 C-105.67139798 242.91663916 -105.70751953 245.75278337 -105.70751953 248.57714844 C-117.58751953 248.57714844 -129.46751953 248.57714844 -141.70751953 248.57714844 C-142.69751953 245.77214844 -143.68751953 242.96714844 -144.70751953 240.07714844 C-152.63332403 218.28823415 -164.46883112 200.56419402 -180.27001953 183.70214844 C-193.59849495 168.92182123 -202.36613774 150.63616981 -207.70751953 131.57714844 C-208.02720703 130.46597656 -208.34689453 129.35480469 -208.67626953 128.20996094 C-216.58644196 94.73821281 -209.05760377 59.66449695 -191.70751953 30.57714844 C-186.77869567 22.92897349 -180.94465186 16.18053724 -174.70751953 9.57714844 C-174.03333984 8.83851563 -173.35916016 8.09988281 -172.66455078 7.33886719 C-127.79498016 -40.05619522 -49.09167356 -40.90738826 0 0 Z " fill="#000000" transform="translate(338.70751953125,135.4228515625)"/>
<path d="M0 0 C34.32 0 68.64 0 104 0 C102.45348832 9.27907007 97.22270244 18.12266571 89.55859375 23.8125 C80.91103366 29.5855582 73.16510747 32.4720728 62.7578125 32.43359375 C61.90879364 32.4388356 61.05977478 32.44407745 60.18502808 32.44947815 C58.40184616 32.45585638 56.61862194 32.45461631 54.83544922 32.44604492 C52.1382187 32.43754167 49.44311559 32.46634323 46.74609375 32.49804688 C32.11112895 32.5592485 21.18450387 30.1251021 10 20 C5.29455967 14.51318181 0 7.49673721 0 0 Z " fill="#000000" transform="translate(204,448)"/>
<path d="M0 0 C13.2 0 26.4 0 40 0 C39.35868802 7.69574379 38.63262539 15.17218827 37.43359375 22.76977539 C37.27899689 23.7713266 37.12440002 24.77287781 36.96511841 25.80477905 C36.46003888 29.06972722 35.94893729 32.33369847 35.4375 35.59765625 C35.08230721 37.88255833 34.72741296 40.16750683 34.37280273 42.45249939 C33.63236403 47.21769133 32.88906183 51.98242462 32.14355469 56.74682617 C31.18722434 62.85940673 30.23699805 68.97291704 29.28874207 75.0867548 C28.55814726 79.79411573 27.8249309 84.50106525 27.09085083 89.20788383 C26.73930994 91.46328602 26.38845676 93.7187955 26.03829956 95.97441292 C25.55025262 99.11494406 25.05881902 102.25492623 24.56640625 105.39477539 C24.42196075 106.32826309 24.27751526 107.26175079 24.12869263 108.223526 C23.99413666 109.07696594 23.85958069 109.93040588 23.72094727 110.80970764 C23.54729393 111.92151697 23.54729393 111.92151697 23.37013245 113.05578709 C23 115 23 115 22 118 C20.68 118 19.36 118 18 118 C15.48535393 105.17887025 13.41942122 92.30544567 11.42578125 79.39453125 C11.09387852 77.25459567 10.7618604 75.11467799 10.42973328 72.97477722 C9.73975176 68.52503646 9.0517149 64.07500036 8.36499023 59.62475586 C7.48499023 53.92360124 6.59917458 48.22336697 5.71183491 42.52335072 C5.02720183 38.12031865 4.34605061 33.71675327 3.66591454 29.31302452 C3.3405521 27.20970139 3.01400511 25.10656114 2.68624306 23.00361061 C2.23033473 20.07562363 1.77922678 17.14693583 1.3293457 14.21801758 C1.19379776 13.35410904 1.05824982 12.4902005 0.91859436 11.60011292 C0.79671753 10.80018921 0.6748407 10.0002655 0.54927063 9.17610168 C0.44255193 8.48618039 0.33583323 7.7962591 0.22588062 7.0854311 C-0.02857733 4.73616132 0 2.36301023 0 0 Z " fill="#000000" transform="translate(236,266)"/>
<path d="M0 0 C36.3 0 72.6 0 110 0 C109.67 7.26 109.34 14.52 109 22 C73.36 22 37.72 22 1 22 C0.67 14.74 0.34 7.48 0 0 Z " fill="#000000" transform="translate(201,405)"/>
<path d="M0 0 C3.98568689 2.1461391 6.33067941 3.79175926 8 8 C8.59443188 12.0738398 7.95862834 15.66580341 5.53930664 19.03295898 C-1.92093025 27.0384684 -9.6202425 34.80634244 -17.35791016 42.54321289 C-19.76362772 44.95114024 -22.16119986 47.36699177 -24.55859375 49.78320312 C-26.09586508 51.32340498 -27.63360867 52.86313564 -29.171875 54.40234375 C-29.88341736 55.12107162 -30.59495972 55.8397995 -31.32806396 56.58030701 C-39.46286345 64.67782393 -39.46286345 64.67782393 -45.9375 65.5 C-50.66447863 65.338853 -52.76610106 63.31277453 -56 60 C-57.64026292 56.71947416 -57.64558569 53.53338137 -57 50 C-53.30247554 43.42338082 -47.38236622 38.07558453 -42.09375 32.79296875 C-41.25082397 31.9457576 -40.40789795 31.09854645 -39.53942871 30.22566223 C-37.76694497 28.4474659 -35.99187599 26.67184312 -34.21435547 24.89868164 C-31.49949199 22.18699259 -28.79826691 19.46220335 -26.09765625 16.73632812 C-24.36799825 15.00439827 -22.63755617 13.27325103 -20.90625 11.54296875 C-20.10296265 10.73047165 -19.29967529 9.91797455 -18.4720459 9.08085632 C-8.12201312 -1.18446025 -8.12201312 -1.18446025 0 0 Z " fill="#000000" transform="translate(430,74)"/>
<path d="M0 0 C9.37054434 6.73279294 17.40620589 16.22006472 25.54321289 24.35791016 C27.95114024 26.76362772 30.36699177 29.16119986 32.78320312 31.55859375 C34.32340498 33.09586508 35.86313564 34.63360867 37.40234375 36.171875 C38.12107162 36.88341736 38.8397995 37.59495972 39.58030701 38.32806396 C47.67782393 46.46286345 47.67782393 46.46286345 48.5 52.9375 C48.338853 57.66447863 46.31277453 59.76610106 43 63 C39.71947416 64.64026292 36.53338137 64.64558569 33 64 C26.42338082 60.30247554 21.07558453 54.38236622 15.79296875 49.09375 C14.9457576 48.25082397 14.09854645 47.40789795 13.22566223 46.53942871 C11.4474659 44.76694497 9.67184312 42.99187599 7.89868164 41.21435547 C5.18699259 38.49949199 2.46220335 35.79826691 -0.26367188 33.09765625 C-1.99560173 31.36799825 -3.72674897 29.63755617 -5.45703125 27.90625 C-6.26952835 27.10296265 -7.08202545 26.29967529 -7.91914368 25.4720459 C-12.56579705 20.78704526 -16.4503149 16.76926923 -17.4375 10 C-16.8708265 6.11423889 -15.47260877 4.02207739 -13 1 C-8.53340546 -1.75223772 -4.90911148 -1.53722011 0 0 Z " fill="#000000" transform="translate(91,75)"/>
<path d="M0 0 C1.00154114 -0.01606293 2.00308228 -0.03212585 3.03497314 -0.04867554 C7.62242999 -0.09311363 12.20974149 -0.13419821 16.79736328 -0.15722656 C19.2164065 -0.17377979 21.63540094 -0.20106111 24.05419922 -0.23925781 C27.54127389 -0.29404857 31.02720115 -0.31590588 34.51464844 -0.33056641 C35.59296936 -0.35323578 36.67129028 -0.37590515 37.7822876 -0.39926147 C46.16864512 -0.37569353 46.16864512 -0.37569353 49.85693359 2.58520508 C52.81486693 5.89621807 53.21424165 7.68473541 53.42871094 11.97412109 C53.04291623 15.50849844 51.49002811 17.56943521 49.18652344 20.19287109 C45.94815202 22.35178537 45.00499919 22.45404645 41.25952148 22.49926758 C40.25805588 22.51525497 39.25659027 22.53124237 38.22477722 22.54771423 C36.60289238 22.55575829 36.60289238 22.55575829 34.94824219 22.56396484 C33.27795708 22.57750755 33.27795708 22.57750755 31.57392883 22.59132385 C29.21606134 22.60584095 26.85815343 22.6147167 24.50024414 22.6184082 C20.89823166 22.63029123 17.2979392 22.67945434 13.69628906 22.72998047 C11.4052818 22.73944608 9.11426401 22.74668045 6.82324219 22.75146484 C5.21046638 22.78076332 5.21046638 22.78076332 3.56510925 22.81065369 C-4.79132871 22.76041425 -4.79132871 22.76041425 -8.47827148 19.78295898 C-11.67233277 16.24027251 -12.20791838 14.11126104 -12.17285156 9.29833984 C-11.53765842 5.57693657 -9.4736864 3.7897426 -6.81347656 1.19287109 C-4.36946349 -0.02913544 -2.7327313 0.03977952 0 0 Z " fill="#000000" transform="translate(416.8134765625,244.80712890625)"/>
<path d="M0 0 C1.00146561 -0.0159874 2.00293121 -0.03197479 3.03474426 -0.04844666 C4.6566291 -0.05649071 4.6566291 -0.05649071 6.3112793 -0.06469727 C7.4248027 -0.07372574 8.53832611 -0.08275421 9.68559265 -0.09205627 C12.04346014 -0.10657337 14.40136805 -0.11544912 16.75927734 -0.11914062 C20.36128983 -0.13102365 23.96158229 -0.18018676 27.56323242 -0.23071289 C29.85423969 -0.2401785 32.14525747 -0.24741287 34.4362793 -0.25219727 C36.0490551 -0.28149574 36.0490551 -0.28149574 37.69441223 -0.31138611 C46.05085019 -0.26114667 46.05085019 -0.26114667 49.73779297 2.71630859 C52.93185425 6.25899507 53.46743987 8.38800653 53.43237305 13.20092773 C52.79717991 16.92233101 50.73320788 18.70952498 48.07299805 21.30639648 C45.62176406 22.53201348 43.98463375 22.45296056 41.24365234 22.48339844 C40.23888351 22.49623367 39.23411469 22.50906891 38.19889832 22.52229309 C37.10934341 22.52968002 36.01978851 22.53706696 34.8972168 22.54467773 C33.77990677 22.55274948 32.66259674 22.56082123 31.51142883 22.56913757 C29.14337724 22.58298595 26.77530561 22.59370472 24.40722656 22.6015625 C20.78566667 22.61877685 17.16501905 22.66265777 13.54370117 22.70678711 C11.24487977 22.71691363 8.9460506 22.72542986 6.6472168 22.73217773 C5.56373459 22.74968582 4.48025238 22.76719391 3.36393738 22.78523254 C-4.17500432 22.76348621 -4.17500432 22.76348621 -8.06835938 20.39697266 C-10.77129457 17.3567475 -11.77327617 15.48496079 -12.30200195 11.43139648 C-11.82561694 7.46152135 -10.39659769 5.41103113 -7.92700195 2.30639648 C-4.68863053 0.1474822 -3.74547771 0.04522113 0 0 Z " fill="#000000" transform="translate(53.927001953125,244.693603515625)"/>
<path d="M0 0 C3.02508145 1.73602105 5.41790069 3.83580137 7 7 C7.11036536 8.60707758 7.15911485 10.21858225 7.17700195 11.8293457 C7.18983719 12.83411453 7.20267242 13.83888336 7.21589661 14.87409973 C7.22328354 15.96365463 7.23067047 17.05320953 7.23828125 18.17578125 C7.246353 19.29309128 7.25442474 20.41040131 7.26274109 21.56156921 C7.27658946 23.92962081 7.28730823 26.29769243 7.29516602 28.66577148 C7.31238037 32.28733138 7.35626128 35.907979 7.40039062 39.52929688 C7.41051715 41.82811828 7.41903338 44.12694745 7.42578125 46.42578125 C7.44328934 47.50926346 7.46079742 48.59274567 7.47883606 49.70906067 C7.45708972 57.24800237 7.45708972 57.24800237 5.09057617 61.14135742 C2.05035102 63.84429262 0.17856431 64.84627422 -3.875 65.375 C-7.84487514 64.89861498 -9.89536536 63.46959574 -13 61 C-15.15891428 57.76162858 -15.26117536 56.81847576 -15.30639648 53.07299805 C-15.32238388 52.07153244 -15.33837128 51.07006683 -15.35484314 50.03825378 C-15.36020584 48.95699722 -15.36556854 47.87574066 -15.37109375 46.76171875 C-15.38463646 45.09143364 -15.38463646 45.09143364 -15.39845276 43.3874054 C-15.41296986 41.0295379 -15.4218456 38.67162999 -15.42553711 36.3137207 C-15.43742014 32.71170822 -15.48658325 29.11141576 -15.53710938 25.50976562 C-15.54657498 23.21875836 -15.55380936 20.92774057 -15.55859375 18.63671875 C-15.57812607 17.56153488 -15.59765839 16.48635101 -15.61778259 15.37858582 C-15.56754315 7.02214786 -15.56754315 7.02214786 -12.59008789 3.33520508 C-8.65339741 -0.21408745 -5.22118326 -0.89118527 0 0 Z " fill="#000000" transform="translate(260,21)"/>
</svg>
