<?xml version="1.0" encoding="utf-8"?>
<!-- Generator: Adobe Illustrator 26.0.3, SVG Export Plug-In . SVG Version: 6.00 Build 0)  -->
<svg version="1.0" id="katman_1" xmlns="http://www.w3.org/2000/svg" xmlns:xlink="http://www.w3.org/1999/xlink" x="0px" y="0px"
	 viewBox="0 0 800 600" style="enable-background:new 0 0 800 600;" xml:space="preserve">
<g>
	<g>
		<path d="M134.5,266.8c9.7,0,18.4,4.2,24.5,10.9h22.8c-8.3-17.8-26.3-30.2-47.3-30.2c-20.9,0-39,12.4-47.3,30.2h22.8
			C116.1,271,124.8,266.8,134.5,266.8z"/>
		<path d="M134.5,332.4c-9.7,0-18.4-4.2-24.5-10.9H87.3c8.3,17.8,26.3,30.2,47.3,30.2s39-12.4,47.3-30.2H159
			C153,328.2,144.3,332.4,134.5,332.4z"/>
		<path d="M165.9,290H83.4c-0.6,3.1-0.9,6.3-0.9,9.6s0.3,6.5,0.9,9.6h82.5c0.9-3,1.4-6.3,1.4-9.6C167.4,296.2,166.8,293,165.9,290z"
			/>
	</g>
	<g>
		<g>
			<g>
				<polygon points="558.7,282.3 573.3,343.1 591.6,343.1 576,282.3 				"/>
				<path d="M558.5,309.3h-12.7l8.3-33.3c0,0,11.2,0,11.2,0c4.4,0,8-3.6,8-8s-3.6-8-8-8h-24.1l-21.3,83.2h17.5l4.4-17.9h20.6
					L558.5,309.3z"/>
			</g>
			<g>
				<rect x="599.8" y="260" width="16.6" height="60.9"/>
				<path d="M639.6,327.2h-39.8v16h39.8c4.4,0,8-3.6,8-8C647.6,330.8,644,327.2,639.6,327.2z"/>
			</g>
			<g>
				<rect x="654.4" y="260" width="16.6" height="60.9"/>
				<path d="M694.2,327.2h-39.8v16h39.8c4.4,0,8-3.6,8-8C702.2,330.8,698.6,327.2,694.2,327.2z"/>
			</g>
			<g>
				<path d="M441.8,260h-47.4v16h47.4c4.4,0,8-3.6,8-8C449.8,263.6,446.2,260,441.8,260z"/>
				<rect x="413.8" y="282.3" width="16.6" height="60.9"/>
			</g>
			<g>
				<path d="M334.5,283.7c-0.1,1-0.2,3.4-0.3,5.7c-0.1,2.1-0.1,5.9-0.1,12.4c0,6.2,0.1,9.8,0.1,11.9c0.1,2.4,0.2,4.8,0.3,5.8
					c1.4,12.8,11.6,23,24.3,24.5v-15.8c-3.8-1.2-6.7-4.3-7.6-8.2c-0.2-0.8-0.4-3.7-0.5-6.7c-0.1-2.5-0.1-6.3-0.1-11.7
					c0-5.2,0.1-9.1,0.1-11.7c0.1-3.2,0.3-6,0.4-6.7c0.8-4.1,3.8-7.4,7.7-8.6v-15.8C346,260.6,335.9,270.8,334.5,283.7z"/>
				<path d="M389.9,283.7c-1.4-12.9-11.5-23.1-24.4-24.6v15.8c3.9,1.2,6.9,4.5,7.7,8.6c0.1,0.7,0.3,3.5,0.4,6.7
					c0.1,2.6,0.1,6.4,0.1,11.7c0,5.4-0.1,9.1-0.1,11.7c-0.1,3-0.3,5.9-0.5,6.7c-0.9,3.9-3.8,7-7.6,8.2v15.8
					c12.8-1.5,22.9-11.7,24.3-24.5c0.1-1,0.2-3.4,0.3-5.8c0.1-2.1,0.1-5.7,0.1-11.9c0-6.5-0.1-10.3-0.1-12.4
					C390.1,287.1,390,284.7,389.9,283.7z"/>
			</g>
			<g>
				<rect x="457.6" y="282.3" width="16.6" height="60.9"/>
				<path d="M497.2,294.3c-1.5-0.3-2.6-0.4-4.5-0.4c0,0-0.5,0-2.8,0c-0.6,0-1,0-2.1,0c-0.3,0-0.6,0-1,0.1c-4,0.5-7.1,3.9-7.1,8
					c0,4.4,3.6,8,8,8c0,0,1.1,0,2.5,0c1.3,0,1.8,0,2.4,0c0.6,0,1.1,0.1,1.6,0.2c4,0.9,6.8,4.2,6.8,8.3c0,4.7-3.8,8.5-8.5,8.5h-11.8
					v16.1h11.8c13.6,0,24.6-11,24.6-24.6C517.2,306.5,508.6,296.5,497.2,294.3z"/>
				<path d="M488.6,276c4.4,0.5,7.8,4.2,7.8,8.7v4.2H513c0,0,0-3.5,0-3.6h0c0-12.5-9.1-22.9-21.1-25c-0.4-0.1-1.2-0.2-2.1-0.3
					s-2.5-0.1-2.5-0.1h-29.6h-0.2v16h29.9C487.9,276,488.2,276,488.6,276z"/>
			</g>
		</g>
		<g>
			<g>
				<rect x="206.6" y="282.3" width="16.6" height="60.9"/>
				<path d="M254.1,276c4.4,0,8-3.6,8-8c0-4.4-3.6-8-8-8l0,0h-47.4v16L254.1,276L254.1,276z"/>
			</g>
			<g>
				<path d="M267.8,283.7c-0.1,1-0.2,3.4-0.3,5.7c-0.1,2.1-0.1,5.9-0.1,12.4c0,6.2,0.1,9.8,0.1,11.9c0.1,2.4,0.2,4.8,0.3,5.8
					c1.4,12.8,11.6,23,24.3,24.5v-15.8c-3.8-1.2-6.7-4.3-7.6-8.2c-0.2-0.8-0.4-3.7-0.5-6.7c-0.1-2.5-0.1-6.3-0.1-11.7
					c0-5.2,0.1-9.1,0.1-11.7c0.1-3.2,0.3-6,0.4-6.7c0.8-4.1,3.8-7.4,7.7-8.6v-15.8C279.4,260.6,269.2,270.8,267.8,283.7z"/>
				<path d="M323.2,283.7c-1.4-12.9-11.5-23.1-24.4-24.6v15.8c3.9,1.2,6.9,4.5,7.7,8.6c0.1,0.7,0.3,3.5,0.4,6.7
					c0.1,2.6,0.1,6.4,0.1,11.7c0,5.4-0.1,9.1-0.1,11.7c-0.1,3-0.3,5.9-0.5,6.7c-0.9,3.9-3.8,7-7.6,8.2v15.8
					c12.8-1.5,22.9-11.7,24.3-24.5c0.1-1,0.2-3.4,0.3-5.8c0.1-2.1,0.1-5.7,0.1-11.9c0-6.5-0.1-10.3-0.1-12.4
					C323.4,287.1,323.3,284.7,323.2,283.7z"/>
			</g>
			<g>
				<g>
					<rect x="229.9" y="293.2" width="26.6" height="16"/>
				</g>
			</g>
		</g>
	</g>
</g>
<g>
	<g>
		<path d="M700.5,259.8v3.1h-3.1v11.9h-3.5v-11.9h-3.1v-3.1C690.8,259.8,700.5,259.8,700.5,259.8z"/>
		<path d="M712.2,259.8h4.9v15h-3.5v-11h-0.1l-2.2,6.8H708l-2.2-6.8h-0.1v11h-3.5v-15h4.9l2.5,6.7h0.2L712.2,259.8z"/>
	</g>
</g>
</svg>
