<?xml version="1.0" encoding="UTF-8"?>
<svg version="1.1" xmlns="http://www.w3.org/2000/svg" width="512" height="512">
<path d="M0 0 C0.73605469 0.47050781 1.47210938 0.94101563 2.23046875 1.42578125 C3.69419922 2.35970703 3.69419922 2.35970703 5.1875 3.3125 C6.15042969 3.92738281 7.11335938 4.54226562 8.10546875 5.17578125 C10.71634303 6.82123103 13.3469602 8.42369665 16 10 C14.76829252 16.32055328 12.98603812 22.19519735 10.67578125 28.19921875 C10.34187881 29.08259918 10.00797638 29.96597961 9.66395569 30.87612915 C8.9359536 32.80046 8.205236 34.72376526 7.47210693 36.64614868 C5.43617954 41.98586361 3.42118179 47.33349365 1.40234375 52.6796875 C0.97008484 53.82260757 0.53782593 54.96552765 0.09246826 56.14308167 C-4.95950232 69.5117831 -9.92249626 82.91329251 -14.8853035 96.3152771 C-16.12271989 99.65637221 -17.3610422 102.99713147 -18.59936523 106.33789062 C-18.84270505 106.99438221 -19.08604486 107.65087379 -19.33675861 108.32725906 C-19.82416917 109.64220824 -20.31158351 110.95715601 -20.79900169 112.27210236 C-21.51892786 114.21439592 -22.23875935 116.15672456 -22.95857239 118.09906006 C-27.04738257 129.13164314 -31.14548682 140.16075022 -35.25 151.1875 C-35.56294006 152.0282608 -35.87588013 152.86902161 -36.19830322 153.73526001 C-40.01051055 163.97655801 -43.82567856 174.21675335 -47.640625 184.45703125 C-48.038759 185.52576981 -48.43689301 186.59450836 -48.84709167 187.69563293 C-50.86461987 193.11121277 -52.88263332 198.52661088 -54.90161133 203.94165039 C-58.81877858 214.44935905 -62.72826833 224.95980962 -66.62109375 235.4765625 C-67.71270926 238.42234916 -68.80455298 241.36805112 -69.89648438 244.3137207 C-70.58130807 246.16309801 -71.26509384 248.01286005 -71.94775391 249.86303711 C-72.88836308 252.41226172 -73.83250526 254.96015298 -74.77734375 257.5078125 C-75.04630966 258.23988922 -75.31527557 258.97196594 -75.59239197 259.72622681 C-77.53205949 264.9415606 -79.72829621 269.88866648 -82 275 C-145.36 275 -208.72 275 -274 275 C-270.39241834 270.79115473 -266.96303512 266.83816934 -263.07625771 262.95320988 C-262.61685049 262.49264882 -262.15744328 262.03208776 -261.68411463 261.55757031 C-260.15981345 260.03064378 -258.63200314 258.50728025 -257.10415649 256.98390198 C-255.99331834 255.87262729 -254.88270016 254.76113268 -253.772282 253.64943832 C-250.73245705 250.60738465 -247.6895352 247.56844559 -244.64608502 244.5300194 C-241.36009202 241.24835405 -238.07699892 237.96378974 -234.79354858 234.67958069 C-229.10837016 228.9938785 -223.42136701 223.31000678 -217.73311234 217.62738228 C-209.50890261 209.41130748 -201.28746306 201.19246527 -193.06669204 192.97294997 C-179.7282207 179.63666602 -166.38751879 166.3026157 -153.04541016 152.9699707 C-140.0865548 140.02029757 -127.12875254 127.06957218 -114.17236328 114.11743164 C-113.37342481 113.31875589 -112.57448633 112.52008014 -111.7513376 111.69720209 C-107.7432131 107.69038265 -103.73510928 103.68354253 -99.72701573 99.67669213 C-66.48788194 66.44792118 -33.24512633 33.22277538 0 0 Z " fill="#000000" transform="translate(381,165)"/>
<path d="M0 0 C1.25951981 -0.01043099 2.51903961 -0.02086198 3.81672668 -0.03160906 C5.21709418 -0.02296054 6.61745937 -0.0139339 8.01782227 -0.00457001 C9.50335807 -0.00917738 10.98888933 -0.0155292 12.47441101 -0.02347898 C16.56234127 -0.04021816 20.6498993 -0.03190531 24.73783112 -0.01953411 C29.14417579 -0.01050461 33.55045528 -0.02444288 37.95678711 -0.0354538 C46.59106313 -0.05326612 55.22520029 -0.04938698 63.85948181 -0.03780323 C70.87500145 -0.02877984 77.89048209 -0.02754016 84.90600586 -0.0318985 C85.90343905 -0.03251143 86.90087225 -0.03312436 87.92853069 -0.03375587 C89.95462164 -0.03503473 91.98071258 -0.03633159 94.00680351 -0.03764623 C113.017835 -0.04905998 132.02878942 -0.03592587 151.03980827 -0.01444477 C167.3619453 0.00342693 183.68396854 0.00032304 200.00610352 -0.01811981 C218.94781875 -0.0395125 237.88946639 -0.04796127 256.83119202 -0.03567076 C258.84994506 -0.03439652 260.86869811 -0.03313904 262.88745117 -0.0318985 C264.37745652 -0.03097285 264.37745652 -0.03097285 265.89756298 -0.03002849 C272.90690416 -0.02657078 279.91620256 -0.03241299 286.92553711 -0.04181671 C295.46437963 -0.0530203 304.00307503 -0.05003128 312.54190063 -0.02869374 C316.90087993 -0.01816115 321.25961368 -0.01409889 325.61859131 -0.02729034 C329.605858 -0.03917465 333.59265061 -0.03271781 337.57987404 -0.01138014 C339.02530255 -0.00689715 340.47077079 -0.00921822 341.91617393 -0.01888329 C343.87524105 -0.03098227 345.83441974 -0.0162242 347.79345703 0 C349.4283181 0.00097411 349.4283181 0.00097411 351.09620667 0.00196791 C353.89672852 0.50336456 353.89672852 0.50336456 357.89672852 4.50336456 C357.89672852 13.74336456 357.89672852 22.98336456 357.89672852 32.50336456 C236.45672852 32.50336456 115.01672852 32.50336456 -10.10327148 32.50336456 C-10.10327148 0.00601992 -10.10327148 0.00601992 0 0 Z " fill="#000000" transform="translate(82.103271484375,455.4966354370117)"/>
<path d="M0 0 C6.26692746 5.17568017 11.97609166 10.84111229 17.70874023 16.59521484 C18.77358361 17.66034074 19.83864811 18.72524559 20.90391541 19.78994751 C23.77755283 22.6632995 26.6481092 25.53971143 29.51809955 28.41670561 C32.52451203 31.42939403 35.53378039 34.43922714 38.54273987 37.44937134 C44.23232124 43.14205356 49.91934994 48.83727878 55.60545355 54.53343451 C62.08234709 61.02152797 68.56210012 67.50676242 75.04208839 73.99176478 C88.36456418 87.32467674 101.68346596 100.66115372 115 114 C113.06558523 118.22142465 110.16605372 121.10074202 106.89794922 124.32910156 C106.27342865 124.95391418 105.64890808 125.57872681 105.00546265 126.22247314 C102.9432435 128.28330069 100.8740341 130.33695653 98.8046875 132.390625 C97.37221453 133.81936725 95.94018293 135.24855215 94.50857544 136.67816162 C90.74168516 140.43742017 86.96882707 144.19063357 83.19470215 147.94262695 C79.34363269 151.77322817 75.49822729 155.60950595 71.65234375 159.4453125 C64.10710066 166.96911378 56.55554189 174.48654202 49 182 C46.76706418 179.76706418 46.20367326 178.24897834 45.13085938 175.30224609 C44.76793793 174.31418472 44.40501648 173.32612335 44.03109741 172.30812073 C43.63927277 171.22417526 43.24744812 170.1402298 42.84375 169.0234375 C42.42976959 167.8925621 42.01578918 166.76168671 41.58926392 165.59654236 C40.69240274 163.14507811 39.79751271 160.69299482 38.90582275 158.23965454 C36.76267269 152.3441387 34.60204524 146.45501827 32.44333267 140.56518745 C31.70744794 138.55688288 30.97220684 136.54834348 30.23703003 134.53977966 C26.27406612 123.71790414 22.24793011 112.92048965 18.18716431 102.13494873 C17.12120398 99.30241297 16.05762456 96.46899504 14.99487305 93.63525391 C14.63591446 92.67816528 14.27695587 91.72107666 13.90711975 90.73498535 C13.54202805 89.76154175 13.17693634 88.78809814 12.80078125 87.78515625 C10.1956608 80.83987366 7.5847503 73.89681223 4.96630859 66.95654297 C2.5368166 60.51659645 0.11598634 54.07345213 -2.29674149 47.62720585 C-3.61755121 44.09932038 -4.94226955 40.57301648 -6.27655029 37.05020142 C-7.52862377 33.74423944 -8.77041111 30.43459656 -10.00452232 27.12188911 C-10.6843461 25.30536549 -11.37511335 23.49294936 -12.06611633 21.6806488 C-12.46928574 20.59268509 -12.87245514 19.50472137 -13.2878418 18.38378906 C-13.64436325 17.436026 -14.0008847 16.48826294 -14.36820984 15.51177979 C-15.04257425 12.83073947 -15.06372872 11.53122096 -14 9 C-11.85546875 7.40234375 -11.85546875 7.40234375 -9.1875 5.9375 C-5.94013587 4.12914509 -2.92557614 2.29817986 0 0 Z " fill="#000000" transform="translate(130,165)"/>
<path d="M0 0 C153.12 0 306.24 0 464 0 C464 5.28 464 10.56 464 16 C310.88 16 157.76 16 0 16 C0 10.72 0 5.44 0 0 Z " fill="#000000" transform="translate(24,24)"/>
<path d="M0 0 C4.21056883 1.64442791 7.02859318 4.75469233 10.14550781 7.90258789 C10.75081329 8.50599503 11.35611877 9.10940216 11.97976685 9.73109436 C13.97580325 11.72343095 15.96455709 13.7228674 17.953125 15.72265625 C19.33709868 17.10782196 20.72144214 18.4926183 22.10614014 19.87705994 C25.00420815 22.77669128 27.89888666 25.67965025 30.79101562 28.58520508 C34.50746674 32.31868543 38.23050665 36.04550924 41.95586014 39.77010441 C44.81276462 42.62728006 47.66706122 45.48704864 50.52046967 48.34771538 C51.89306995 49.72350795 53.26628569 51.09868678 54.64011383 52.47325325 C56.55330265 54.38859747 58.46316955 56.30719002 60.37207031 58.22680664 C60.94553192 58.79981506 61.51899353 59.37282349 62.10983276 59.9631958 C66 63.88552353 66 63.88552353 66 65 C36.3 65 6.6 65 -24 65 C-20.62473638 53.74912128 -20.62473638 53.74912128 -18.83935547 49.03125 C-18.44239471 47.97736084 -18.04543396 46.92347168 -17.63644409 45.83764648 C-17.21758942 44.73622314 -16.79873474 43.6347998 -16.3671875 42.5 C-15.92988312 41.34250244 -15.49257874 40.18500488 -15.04202271 38.99243164 C-14.12416774 36.56482838 -13.20469945 34.13783455 -12.28369141 31.71142578 C-10.86919854 27.98471512 -9.45957382 24.25621251 -8.05078125 20.52734375 C-7.15652942 18.16395676 -6.26200784 15.80067181 -5.3671875 13.4375 C-4.94428436 12.31988281 -4.52138123 11.20226562 -4.08566284 10.05078125 C-3.49967819 8.50777344 -3.49967819 8.50777344 -2.90185547 6.93359375 C-2.55782684 6.02665771 -2.21379822 5.11972168 -1.85934448 4.18530273 C-1 2 -1 2 0 0 Z " fill="#000000" transform="translate(339,375)"/>
<path d="M0 0 C4.37631153 0.78452624 8.75078487 1.57887496 13.125 2.375 C14.3625 2.59671875 15.6 2.8184375 16.875 3.046875 C18.67324219 3.37558594 18.67324219 3.37558594 20.5078125 3.7109375 C22.15740967 4.00943604 22.15740967 4.00943604 23.84033203 4.31396484 C26.99296887 4.99847338 29.96133284 5.92305472 33 7 C31.06278605 19.8281363 21.24762484 31.42096675 11.234375 39.12890625 C-3.73140173 49.02769857 -16.50397041 51.36157122 -34 51 C-33.34941146 43.82856996 -32.01874321 36.95786552 -30.4375 29.9375 C-30.20353516 28.88111328 -29.96957031 27.82472656 -29.72851562 26.73632812 C-29.15653688 24.15658727 -28.58028727 21.57788225 -28 19 C-26.40671875 18.56107422 -26.40671875 18.56107422 -24.78125 18.11328125 C-15.92911648 15.50702293 -7.20120057 12.00200095 -2.296875 3.828125 C-1.86213867 3.11043945 -1.42740234 2.39275391 -0.97949219 1.65332031 C-0.65625977 1.10772461 -0.33302734 0.56212891 0 0 Z " fill="#000000" transform="translate(108,117)"/>
<path d="M0 0 C0.9081803 1.33993815 1.75119369 2.72428312 2.5625 4.125 C6.51484224 10.18208353 11.09237438 13.99065021 18.17578125 15.8203125 C20.27201983 16.25713347 22.37953789 16.64437362 24.49609375 16.96875 C27 18 27 18 28.18359375 20.40234375 C28.45300781 21.58957031 28.72242188 22.77679688 29 24 C29.30296997 25.22323975 29.30296997 25.22323975 29.61206055 26.47119141 C30.31506378 29.32833042 30.97349055 32.19320694 31.625 35.0625 C31.85445313 36.04283203 32.08390625 37.02316406 32.3203125 38.03320312 C32.536875 38.98259766 32.7534375 39.93199219 32.9765625 40.91015625 C33.27167725 42.19611694 33.27167725 42.19611694 33.57275391 43.50805664 C34.00939462 46.05479479 34.07559467 48.42141384 34 51 C14.97229668 51.60228369 -2.0393931 47.8465196 -16.5625 34.6875 C-21.74345968 29.76219954 -25.5979189 24.26399891 -29 18 C-29.43183594 17.22011719 -29.86367188 16.44023437 -30.30859375 15.63671875 C-31.91067193 12.6044116 -33 10.47321941 -33 7 C-25.89616453 4.84929752 -18.70995667 3.26491275 -11.4375 1.8125 C-10.09800293 1.54421387 -10.09800293 1.54421387 -8.73144531 1.27050781 C-2.26993482 0 -2.26993482 0 0 0 Z " fill="#000000" transform="translate(404,117)"/>
<path d="M0 0 C4.8846525 2.26787438 7.73212562 5.1153475 10 10 C10.75381535 15.5997712 10.77303575 20.33499991 8.375 25.5 C3.80134327 30.3143755 0.6912538 32.25156236 -6 32.5 C-12.6912538 32.25156236 -15.80134327 30.3143755 -20.375 25.5 C-22.77303575 20.33499991 -22.75381535 15.5997712 -22 10 C-17.52212837 0.3553534 -9.85292056 -1.32635469 0 0 Z " fill="#000000" transform="translate(438,88)"/>
<path d="M0 0 C4.8846525 2.26787438 7.73212562 5.1153475 10 10 C10.75381535 15.5997712 10.77303575 20.33499991 8.375 25.5 C3.80134327 30.3143755 0.6912538 32.25156236 -6 32.5 C-12.6912538 32.25156236 -15.80134327 30.3143755 -20.375 25.5 C-22.77303575 20.33499991 -22.75381535 15.5997712 -22 10 C-17.52212837 0.3553534 -9.85292056 -1.32635469 0 0 Z " fill="#000000" transform="translate(86,88)"/>
<path d="M0 0 C5.28 0 10.56 0 16 0 C16 5.94 16 11.88 16 18 C10.72 18 5.44 18 0 18 C0 12.06 0 6.12 0 0 Z " fill="#000000" transform="translate(424,56)"/>
<path d="M0 0 C5.28 0 10.56 0 16 0 C16 5.94 16 11.88 16 18 C10.72 18 5.44 18 0 18 C0 12.06 0 6.12 0 0 Z " fill="#000000" transform="translate(72,56)"/>
</svg>
