<?xml version="1.0" encoding="UTF-8"?>
<svg version="1.1" xmlns="http://www.w3.org/2000/svg" width="512" height="512">
<path d="M0 0 C2.02612305 1.19238281 2.02612305 1.19238281 4.01171875 2.703125 C5.13429077 3.54532593 5.13429077 3.54532593 6.27954102 4.40454102 C7.07416748 5.01354248 7.86879395 5.62254395 8.6875 6.25 C10.39781262 7.53598773 12.10876522 8.8211247 13.8203125 10.10546875 C15.1182373 11.08459229 15.1182373 11.08459229 16.44238281 12.08349609 C20.28030039 14.95936981 24.16807126 17.76387641 28.0625 20.5625 C29.5430179 21.62883801 31.02348651 22.69524446 32.50390625 23.76171875 C33.23883301 24.29071777 33.97375977 24.8197168 34.73095703 25.36474609 C37.08199527 27.05909235 39.43005225 28.75749872 41.77734375 30.45703125 C42.56810303 31.02929443 43.3588623 31.60155762 44.17358398 32.19116211 C45.66175049 33.26828294 47.14957656 34.34587436 48.63696289 35.42407227 C49.32395264 35.92092529 50.01094238 36.41777832 50.71875 36.9296875 C51.36116135 37.41427429 52.00357269 37.89886108 52.66545105 38.39813232 C54.96138362 40.06599205 54.96138362 40.06599205 57.55889893 41.20170593 C60.69130262 42.8376458 62.7046462 44.29229285 65 47 C66.53530679 52.94812487 66.41026738 58.79127015 66.328125 64.90234375 C66.3348691 66.6668074 66.34458084 68.43126196 66.3571167 70.19569397 C66.37182945 73.88746912 66.3505461 77.5768185 66.30371094 81.26831055 C66.24676031 85.98534771 66.27951563 90.69669216 66.33943558 95.41351986 C66.37569533 99.05577454 66.36401691 102.69669472 66.33815765 106.33899117 C66.33151791 108.07681526 66.33956462 109.81476316 66.36295319 111.55244255 C66.50494691 125.06764013 66.50494691 125.06764013 62.82775879 129.78916931 C60.30643458 131.83300291 57.83495481 133.43148411 55 135 C53.63422791 135.96688485 52.27751821 136.94694588 50.9375 137.94921875 C49.62704316 138.86491013 48.31449438 139.77761411 47 140.6875 C45.51893306 141.72310337 44.03848486 142.75959206 42.55859375 143.796875 C41.43106689 144.58674805 41.43106689 144.58674805 40.28076172 145.39257812 C37.27162066 147.51334292 34.28331228 149.66193183 31.30053711 151.81958008 C29.81086095 152.89649552 28.31818294 153.96927093 26.82250977 155.0378418 C22.86398542 157.87553518 18.98904352 160.78075364 15.1796875 163.81640625 C14.38554443 164.43265869 13.59140137 165.04891113 12.77319336 165.68383789 C11.25417325 166.86498042 9.7535263 168.07027418 8.27563477 169.30249023 C6.19600051 170.89673897 4.43275069 172.03012019 2 173 C0.11557007 172.70628357 0.11557007 172.70628357 -1.88525391 171.91186523 C-5.73780148 170.4708178 -9.59536513 169.16182721 -13.52270508 167.93579102 C-66.30584732 151.00345106 -66.30584732 151.00345106 -74.2177887 138.88485718 C-77.79637056 131.89569486 -79.02216218 124.20647674 -79.91932678 116.4703064 C-81.03788528 107.01345152 -84.23652257 98.28593436 -87.31344604 89.31567383 C-88.79523689 84.95967518 -90.19646527 80.5800221 -91.578125 76.19140625 C-91.82410934 75.43469131 -92.07009369 74.67797638 -92.3235321 73.89833069 C-94.58837336 66.70800744 -94.58837336 66.70800744 -94 63 C-92.64233398 60.98291016 -92.64233398 60.98291016 -90.74609375 59.0390625 C-90.05580078 58.31976563 -89.36550781 57.60046875 -88.65429688 56.859375 C-87.55698242 55.75335938 -87.55698242 55.75335938 -86.4375 54.625 C-85.73302734 53.89539063 -85.02855469 53.16578125 -84.30273438 52.4140625 C-82.21674824 50.26078649 -80.11172853 48.12800727 -78 46 C-77.36707031 45.35603271 -76.73414062 44.71206543 -76.08203125 44.04858398 C-57.35152361 25.097628 -34.14275823 11.79049323 -10 1 C-9.11699219 0.57589844 -8.23398438 0.15179688 -7.32421875 -0.28515625 C-4.42835986 -1.17581537 -2.90788179 -0.79645226 0 0 Z " fill="#000000" transform="translate(182,55)"/>
<path d="M0 0 C3.87493343 1.24761114 7.57036638 2.69991342 11.28125 4.37109375 C12.05863525 4.71978516 12.83602051 5.06847656 13.63696289 5.42773438 C26.9176401 11.53745686 39.56562956 19.00143931 51.09375 27.99609375 C52.16332543 28.80046019 53.23368387 29.60378617 54.3046875 30.40625 C61.02819746 35.50193263 67.36444804 40.92614047 73.53125 46.68359375 C74.1811792 47.28888916 74.8311084 47.89418457 75.50073242 48.51782227 C80.84406728 53.58263691 85.99994219 58.85538203 90.09375 64.99609375 C89.75475699 71.1196793 87.7089321 76.7362958 85.77734375 82.51953125 C85.27522118 84.04714584 85.27522118 84.04714584 84.76295471 85.60562134 C83.69120701 88.86261842 82.61154044 92.11692134 81.53125 95.37109375 C80.48287254 98.54563806 79.43619503 101.72067725 78.39564514 104.89779663 C77.68780128 107.03261191 76.96365237 109.16208529 76.22386169 111.28604126 C74.34956721 116.73883964 72.84015112 121.99631903 71.86938477 127.68505859 C70.33264196 135.6515875 68.87468541 143.0346183 62.21609497 148.25006104 C54.05934351 153.03459178 45.26236539 156.12383831 36.32818604 159.12689209 C32.70347887 160.3688776 29.12114567 161.722682 25.53320312 163.06640625 C19.13057417 165.44513179 12.70542889 167.73575523 6.23368835 169.92095947 C4.26555351 170.59486099 2.30641091 171.29632487 0.36262512 172.03753662 C-0.42687027 172.33275208 -1.21636566 172.62796753 -2.02978516 172.93212891 C-3.01828964 173.32013168 -3.01828964 173.32013168 -4.02676392 173.7159729 C-6.62664752 174.10346266 -7.88615597 173.25286621 -10.08984375 171.90234375 C-11.531524 170.79719017 -12.94855765 169.65938421 -14.34375 168.49609375 C-15.92515045 167.26611562 -17.50720003 166.03697172 -19.08984375 164.80859375 C-19.88890137 164.17179688 -20.68795898 163.535 -21.51123047 162.87890625 C-25.22209691 159.96165834 -29.06347356 157.23564049 -32.90625 154.49609375 C-34.39522744 153.42153694 -35.88350593 152.34601098 -37.37109375 151.26953125 C-40.48505271 149.02022234 -43.60272428 146.77617211 -46.72265625 144.53515625 C-47.51736328 143.96345703 -48.31207031 143.39175781 -49.13085938 142.80273438 C-50.62985296 141.72451092 -52.12977109 140.64757096 -53.63085938 139.57226562 C-54.98408859 138.59809221 -56.32581238 137.60764542 -57.6529541 136.59822083 C-59.85306879 134.95449601 -59.85306879 134.95449601 -62.23535156 133.79191589 C-65.10096377 132.11503563 -66.88022115 130.64766629 -68.90625 127.99609375 C-70.34039609 122.07548652 -70.29705867 116.23073202 -70.27734375 110.1640625 C-70.29612916 108.40438249 -70.31683643 106.64472205 -70.33937073 104.88508606 C-70.37513211 101.20199092 -70.37595076 97.5208326 -70.35424805 93.83764648 C-70.33098709 89.13740929 -70.41224733 84.44559682 -70.52239895 79.74683666 C-70.59278468 76.11303401 -70.59794878 72.4812314 -70.5849781 68.84685707 C-70.58819198 67.11608988 -70.613308 65.3852088 -70.66155815 63.65511131 C-70.98394393 50.54747078 -70.98394393 50.54747078 -67.52611732 46.30131149 C-63.71964672 42.82697893 -59.41698786 40.43880268 -54.90625 37.99609375 C-53.34171714 36.91362183 -51.79004776 35.81144506 -50.26953125 34.66796875 C-49.60026611 34.18569824 -48.93100098 33.70342773 -48.24145508 33.20654297 C-41.20859469 28.12862253 -34.20128305 23.01801244 -27.21875 17.87109375 C-26.03659912 17.0042395 -26.03659912 17.0042395 -24.83056641 16.11987305 C-21.04338986 13.33781834 -17.28725564 10.52834943 -13.5859375 7.6328125 C-12.91006592 7.11283691 -12.23419434 6.59286133 -11.5378418 6.05712891 C-10.28069902 5.08810437 -9.03387301 4.10547974 -7.80004883 3.10693359 C-5.10859758 1.05102313 -3.43046485 -0.00461084 0 0 Z " fill="#000000" transform="translate(334.90625,54.00390625)"/>
<path d="M0 0 C2.10184929 1.33693952 4.15728738 2.652683 6.15014648 4.14819336 C7.26498413 4.97782593 7.26498413 4.97782593 8.40234375 5.82421875 C9.58848267 6.71935181 9.58848267 6.71935181 10.79858398 7.63256836 C12.50813392 8.90742257 14.21777179 10.18215888 15.92749023 11.45678711 C17.23484131 12.43591064 17.23484131 12.43591064 18.56860352 13.43481445 C22.61059243 16.4570251 26.67250427 19.45198345 30.73608398 22.44506836 C31.90083252 23.30394653 31.90083252 23.30394653 33.08911133 24.18017578 C40.10150675 29.34456283 47.15420796 34.45235643 54.22045898 39.54272461 C54.87852539 40.03272949 55.5365918 40.52273438 56.21459961 41.02758789 C58.13403173 42.42535008 58.13403173 42.42535008 60.24194336 43.40551758 C62.41241209 44.55987168 63.70352499 45.40043787 65.17358398 47.38256836 C65.95289488 51.78066337 65.61002452 55.95634419 65.17358398 60.38256836 C65.07271484 61.4228418 64.9718457 62.46311523 64.86791992 63.53491211 C64.50190747 66.66646277 64.04662015 69.76936439 63.54858398 72.88256836 C63.37037109 74.00622803 63.1921582 75.1298877 63.00854492 76.28759766 C61.22798596 86.93253835 58.60943013 97.15744314 55.17358398 107.38256836 C54.88499512 108.24156738 54.59640625 109.10056641 54.29907227 109.9855957 C49.59303037 123.68122114 43.70034241 136.98451114 36.17358398 149.38256836 C35.86205289 149.95307828 35.55052179 150.5235882 35.22955036 151.1113863 C32.90243879 154.9401701 31.89503843 156.20449665 27.38143921 157.31855774 C25.88401883 157.3811182 24.38470023 157.40559736 22.88598633 157.39941406 C22.06411835 157.42292435 21.24225037 157.44643463 20.39547729 157.47065735 C17.68273479 157.53705624 14.97302561 157.55081801 12.25952148 157.55834961 C10.36486588 157.58085899 8.47022239 157.60440911 6.57559204 157.62895203 C2.60259855 157.67085334 -1.36933047 157.68383683 -5.3425293 157.6796875 C-10.41220206 157.67897789 -15.47496977 157.7743133 -20.5430088 157.89509296 C-24.45892007 157.97332247 -28.37319406 157.98711088 -32.28980637 157.98341942 C-34.15656618 157.99163133 -36.02337781 158.0223272 -37.88936234 158.07674599 C-52.05268796 158.45096831 -52.05268796 158.45096831 -56.67868805 155.00130844 C-59.96787104 151.70991948 -62.46823192 148.01640017 -64.82723522 144.02293205 C-66.14907963 141.85284873 -67.71239035 139.93944627 -69.35766602 138.00756836 C-69.85258545 137.40235352 -70.34750488 136.79713867 -70.85742188 136.17358398 C-71.58457397 135.28703125 -71.58457397 135.28703125 -72.32641602 134.38256836 C-77.43392686 128.12328126 -82.48822507 121.82698231 -87.43188477 115.43725586 C-88.87370536 113.59793497 -90.34690444 111.78177601 -91.87719727 110.01538086 C-92.43793945 109.35280273 -92.99868164 108.69022461 -93.57641602 108.00756836 C-94.04563477 107.48420898 -94.51485352 106.96084961 -94.99829102 106.42163086 C-97.61825256 99.97059346 -93.2572393 90.96144184 -91.18579102 84.78881836 C-90.82173157 83.68389038 -90.45767212 82.5789624 -90.08258057 81.44055176 C-88.92075421 77.9188994 -87.74895461 74.40066686 -86.57641602 70.88256836 C-85.4232166 67.40121163 -84.27208839 63.9191877 -83.12330627 60.43637085 C-82.37729765 58.18342056 -81.62535287 55.93242663 -80.86729431 53.6835022 C-79.27396261 48.93296498 -77.7329173 44.21609532 -76.53564453 39.34887695 C-74.09098464 29.55775264 -74.09098464 29.55775264 -70.71948242 26.42456055 C-67.94770251 24.91014372 -65.27898157 23.94742434 -62.26391602 23.00756836 C-59.95514354 22.16657044 -57.64797928 21.32115032 -55.34204102 20.47241211 C-54.70372849 20.24751602 -54.06541595 20.02261993 -53.40776062 19.79090881 C-47.33605594 17.6409535 -41.42364122 15.15832457 -35.49829102 12.63647461 C-33.50437078 11.79353503 -31.5103108 10.95092595 -29.51611328 10.10864258 C-26.51791841 8.84196606 -23.52085518 7.57303312 -20.52780151 6.29425049 C-17.70056462 5.09172067 -14.86467247 3.91238367 -12.02563477 2.73803711 C-11.1714093 2.36892715 -10.31718384 1.9998172 -9.43707275 1.61952209 C-3.56204198 -0.77812941 -3.56204198 -0.77812941 0 0 Z " fill="#000000" transform="translate(407.826416015625,217.617431640625)"/>
<path d="M0 0 C3.6434549 1.29878592 7.20668321 2.77605577 10.77734375 4.26171875 C11.82088516 4.68999466 12.86442657 5.11827057 13.93959045 5.55952454 C17.2746657 6.92967597 20.60614367 8.30833439 23.9375 9.6875 C27.22945201 11.04357832 30.52211335 12.39791695 33.81509399 13.75149536 C35.94420202 14.62820832 38.07212942 15.5077943 40.19882202 16.39035034 C44.71239768 18.26024811 49.224253 20.10790141 53.80517578 21.80712891 C54.505746 22.07064651 55.20631622 22.33416412 55.92811584 22.60566711 C57.7160061 23.27137644 59.51113217 23.91756803 61.30688477 24.56176758 C65.88730852 27.00789906 67.27676386 31.3218445 68.82177734 36.0871582 C69.14576508 37.07621658 69.46975281 38.06527496 69.80355835 39.08430481 C70.14424347 40.14574203 70.48492859 41.20717926 70.8359375 42.30078125 C71.19716705 43.40995407 71.55839661 44.51912689 71.93057251 45.66191101 C73.08450926 49.21025641 74.22975977 52.76133947 75.375 56.3125 C76.13747409 58.65968289 76.90048949 61.00669 77.6640625 63.35351562 C79.47198642 68.91564641 81.26186261 74.48339466 83.04724121 80.05279541 C83.91189524 82.72746225 84.79552678 85.39473471 85.68847656 88.06005859 C86.15953301 89.49185283 86.63056414 90.9236554 87.1015625 92.35546875 C87.49939941 93.54164795 87.89723633 94.72782715 88.30712891 95.94995117 C89.03393529 99.14938462 89.01656883 100.90707771 88 104 C86.47930714 106.22009549 84.95675421 108.24692609 83.25 110.3125 C82.76337891 110.91642578 82.27675781 111.52035156 81.77539062 112.14257812 C80.19257881 114.10253648 78.59698657 116.05158076 77 118 C75.92122437 119.32629398 74.84310147 120.65311912 73.765625 121.98046875 C72.13045084 123.99412142 70.49433211 126.00694508 68.85424805 128.01660156 C64.763208 133.03429417 60.74327631 138.10356522 56.77734375 143.22070312 C55.97821921 144.24725147 55.17120515 145.26773186 54.35457611 146.28041077 C53.44804951 147.43121607 52.57437989 148.60864032 51.73484039 149.80918884 C48.15655894 154.59555932 48.15655894 154.59555932 45.1156311 155.65895081 C42.92190039 155.92279197 40.82070057 155.96939767 38.61132812 155.9375 C37.38089027 155.96071823 37.38089027 155.96071823 36.12559509 155.98440552 C33.42649482 156.0252582 30.73057816 156.01477743 28.03125 156 C26.14846823 156.00980066 24.26569498 156.02138357 22.38293457 156.03466797 C18.44192033 156.05398774 14.50201131 156.04704089 10.56103516 156.02246094 C5.51593347 155.99376494 0.4744526 156.0375078 -4.57021332 156.10186768 C-8.45668003 156.14221771 -12.34228021 156.14046819 -16.22889709 156.12646484 C-18.08842933 156.12549283 -19.94802342 156.13838363 -21.80735779 156.16552734 C-36.30521618 156.3459569 -36.30521618 156.3459569 -40.40835571 153.08734131 C-41.98639235 150.76924524 -43.02661084 148.62200905 -44 146 C-44.5161084 145.13665039 -45.0322168 144.27330078 -45.56396484 143.38378906 C-59.17734108 118.24337777 -68.64899692 91.75094517 -71.71875 63.19384766 C-71.97987969 61.1569454 -72.4055735 59.14299911 -72.84375 57.13671875 C-73.46135129 53.05419255 -73.5205091 50.86081076 -72 47 C-67.37476412 41.93243683 -61.38303776 38.36556911 -55.63818359 34.70703125 C-51.62143794 32.10800426 -47.79079325 29.27051472 -43.9375 26.4375 C-42.4569859 25.36804973 -40.97521046 24.30034348 -39.4921875 23.234375 C-35.6236331 20.44955855 -31.75731523 17.66167562 -27.89379883 14.86987305 C-26.35887987 13.76220454 -24.8222983 12.65683574 -23.28393555 11.55395508 C-20.02334304 9.21235871 -16.78737552 6.85926055 -13.63671875 4.37109375 C-12.68410156 3.62988281 -11.73148438 2.88867188 -10.75 2.125 C-9.96109375 1.48820313 -9.1721875 0.85140625 -8.359375 0.1953125 C-5.05283387 -1.47985569 -3.6327169 -0.86648963 0 0 Z " fill="#000000" transform="translate(112,219)"/>
<path d="M0 0 C2.52853651 -0.37128193 4.82416358 -0.54388019 7.36450195 -0.59448242 C8.12419785 -0.62062119 8.88389374 -0.64675995 9.66661072 -0.6736908 C12.19040051 -0.75344996 14.71368882 -0.807818 17.23828125 -0.85546875 C18.10282614 -0.87268793 18.96737103 -0.88990711 19.85811424 -0.90764809 C24.44412479 -0.99379288 29.02990018 -1.05693222 33.61645508 -1.10522461 C37.39665413 -1.14953742 41.17133287 -1.23964454 44.94946289 -1.37182617 C78.00664762 -2.50320231 78.00664762 -2.50320231 85.25170898 3.40209961 C88.20163382 6.60110308 90.21945267 10.0056524 91.99853516 13.95993042 C93.65313411 17.33049006 96.0446455 20.0693494 98.4375 22.9375 C99.32625094 24.06769848 100.21205508 25.20022587 101.09375 26.3359375 C105.60875826 32.06530542 110.28127259 37.66729675 114.93359375 43.28515625 C115.72419189 44.25606201 115.72419189 44.25606201 116.53076172 45.24658203 C117.78151228 46.73925245 119.11934101 48.15824386 120.47265625 49.55859375 C122.64601095 53.03262619 121.76256802 55.02417067 121 59 C120.32162726 61.51061035 119.61021346 63.97216756 118.82617188 66.44824219 C118.60639679 67.15645615 118.3866217 67.8646701 118.16018677 68.59434509 C117.437138 70.91426673 116.7045584 73.2309701 115.96875 75.546875 C115.71611893 76.34208809 115.46348785 77.13730118 115.20320129 77.95661163 C113.86541534 82.1578449 112.51814352 86.35592387 111.16503906 90.55224609 C110.04956224 94.01867557 108.95495934 97.49067518 107.87792969 100.96923828 C106.57310487 105.18309181 105.23316385 109.38419242 103.86732483 113.57865143 C103.35424203 115.1742765 102.8535429 116.7739401 102.3657074 118.37746429 C98.54224338 130.89246161 98.54224338 130.89246161 94.74197388 133.62156677 C92.42791606 134.4166241 90.42986343 134.79315998 88 135 C86.82179688 135.29003906 85.64359375 135.58007812 84.4296875 135.87890625 C59.42393114 140.68770555 34.22385263 141.2336192 9 138 C7.89382324 137.85997559 6.78764648 137.71995117 5.64794922 137.57568359 C2.21168839 137.10928202 -1.20411191 136.56754686 -4.625 136 C-6.23483765 135.78017456 -6.23483765 135.78017456 -7.87719727 135.5559082 C-8.87936279 135.3724585 -9.88152832 135.18900879 -10.9140625 135 C-11.8004541 134.855625 -12.6868457 134.71125 -13.60009766 134.5625 C-17.71206163 131.88533119 -18.49684377 127.51402962 -20 123 C-20.59328094 121.29099014 -20.59328094 121.29099014 -21.19854736 119.54745483 C-22.57178233 115.55445165 -23.91029336 111.55118208 -25.23828125 107.54296875 C-25.5987256 106.45731345 -25.5987256 106.45731345 -25.96645164 105.34972572 C-27.23334907 101.53261776 -28.49631638 97.7142356 -29.75610352 93.89477539 C-31.05499249 89.95955392 -32.36798029 86.02918437 -33.68404865 82.0996809 C-34.69825789 79.06281302 -35.7018694 76.02251953 -36.70262718 72.98119545 C-37.18226741 71.529829 -37.66591406 70.07978005 -38.1536808 68.6311245 C-38.83289746 66.61071574 -39.49690888 64.58589767 -40.1574707 62.55932617 C-40.53845413 61.41034348 -40.91943756 60.26136078 -41.31196594 59.07756042 C-42.02413775 55.89203239 -41.96649434 54.08696532 -41 51 C-39.77587891 49.09399414 -39.77587891 49.09399414 -38.2265625 47.28515625 C-37.65486328 46.60646484 -37.08316406 45.92777344 -36.49414062 45.22851562 C-35.87732422 44.51373047 -35.26050781 43.79894531 -34.625 43.0625 C-33.33460455 41.53367616 -32.0455572 40.00371351 -30.7578125 38.47265625 C-30.1174707 37.71484863 -29.47712891 36.95704102 -28.81738281 36.17626953 C-26.30770658 33.1709963 -23.89679826 30.09550593 -21.5 27 C-16.65285794 20.7639108 -11.64417995 14.66798913 -6.59375 8.59570312 C-6.02527344 7.91056641 -5.45679688 7.22542969 -4.87109375 6.51953125 C-4.36505615 5.91214111 -3.85901855 5.30475098 -3.33764648 4.67895508 C-2.14386251 3.1805699 -1.06269299 1.59403949 0 0 Z " fill="#000000" transform="translate(216,332)"/>
<path d="M0 0 C3.88652038 1.91001624 7.2439885 4.38773518 10.69921875 6.984375 C12.31754133 8.17730993 13.93603567 9.37001186 15.5546875 10.5625 C16.37888184 11.17416016 17.20307617 11.78582031 18.05224609 12.41601562 C21.84797583 15.22230856 25.68025516 17.97718902 29.51171875 20.734375 C30.99240306 21.80308682 32.47287049 22.8720992 33.953125 23.94140625 C34.69320801 24.47588379 35.43329102 25.01036133 36.19580078 25.56103516 C38.6442314 27.33012049 41.09171913 29.10050468 43.5390625 30.87109375 C44.77172852 31.76248047 44.77172852 31.76248047 46.02929688 32.671875 C47.6077468 33.81335291 49.1858866 34.95525982 50.76367188 36.09765625 C51.47330078 36.61070312 52.18292969 37.12375 52.9140625 37.65234375 C53.53788818 38.10375732 54.16171387 38.5551709 54.80444336 39.02026367 C56.35281262 40.12137054 57.93084866 41.18046161 59.51171875 42.234375 C58.94905161 49.38921149 56.89732304 55.70742884 54.58203125 62.4765625 C53.99553299 64.22188766 53.99553299 64.22188766 53.39718628 66.00247192 C52.1507881 69.70720898 50.8941626 73.40837411 49.63671875 77.109375 C48.38848306 80.80390174 47.14239233 84.49914138 45.89767456 88.19485474 C45.1243966 90.48856584 44.34875443 92.78148175 43.57034302 95.07345581 C43.21342377 96.12799957 42.85650452 97.18254333 42.48876953 98.26904297 C42.1786795 99.18201141 41.86858948 100.09497986 41.54910278 101.03561401 C40.12979305 105.41203823 38.83375416 109.8275903 37.51171875 114.234375 C12.43171875 114.234375 -12.64828125 114.234375 -38.48828125 114.234375 C-46.11328125 90.859375 -46.11328125 90.859375 -48.47900391 83.60400391 C-48.80202484 82.61435638 -49.12504578 81.62470886 -49.45785522 80.60507202 C-50.1204906 78.57460171 -50.78221609 76.54383434 -51.44326782 74.5128479 C-53.04744203 69.59457093 -54.66730678 64.68381768 -56.35058594 59.79199219 C-56.6330014 58.96637787 -56.91541687 58.14076355 -57.20639038 57.29013062 C-57.72469304 55.78102512 -58.2491348 54.27400691 -58.78115845 52.76968384 C-61.11425908 45.96257676 -61.11425908 45.96257676 -60.48828125 42.234375 C-59.05810547 40.63208008 -59.05810547 40.63208008 -57.04296875 39.25390625 C-56.30304688 38.73505859 -55.563125 38.21621094 -54.80078125 37.68164062 C-53.59421875 36.87243164 -53.59421875 36.87243164 -52.36328125 36.046875 C-51.12964844 35.18932617 -51.12964844 35.18932617 -49.87109375 34.31445312 C-48.19812605 33.1519484 -46.52071424 31.99581251 -44.83886719 30.84619141 C-41.6895335 28.686667 -38.58804952 26.46412195 -35.48828125 24.234375 C-34.37132091 23.43718163 -33.25412792 22.64031414 -32.13671875 21.84375 C-27.78671206 18.736255 -23.44899258 15.61177334 -19.11328125 12.484375 C-18.3759375 11.95328125 -17.63859375 11.4221875 -16.87890625 10.875 C-16.16476563 10.359375 -15.450625 9.84375 -14.71484375 9.3125 C-14.01391602 8.81041016 -13.31298828 8.30832031 -12.59082031 7.79101562 C-11.14784935 6.72269434 -9.73384712 5.61445238 -8.34667969 4.47460938 C-3.20950358 0.30230803 -3.20950358 0.30230803 0 0 Z " fill="#000000" transform="translate(256.48828125,198.765625)"/>
<path d="M0 0 C22.44 0 44.88 0 68 0 C54.2038917 27.5922166 15.81273504 51.765296 -12.28515625 62.22265625 C-14.51627397 62.89732617 -16.72154112 63.51295842 -19 64 C-18.35134149 56.99001454 -16.10832499 50.52574509 -13.96484375 43.84765625 C-13.61200317 42.73418823 -13.2591626 41.62072021 -12.89562988 40.47351074 C-11.58229157 36.33458627 -10.25932839 32.19872086 -8.9375 28.0625 C-5.988125 18.801875 -3.03875 9.54125 0 0 Z " fill="#000000" transform="translate(355,393)"/>
<path d="M0 0 C1.22843628 -0.01038551 1.22843628 -0.01038551 2.48168945 -0.02098083 C5.10763398 -0.03815616 7.73337696 -0.04456665 10.359375 -0.046875 C11.25410522 -0.04821442 12.14883545 -0.04955383 13.07067871 -0.05093384 C26.27864193 -0.04663842 39.15943343 0.35509357 52.109375 3.203125 C53.09768311 3.4192041 53.09768311 3.4192041 54.10595703 3.63964844 C57.46998937 4.39674885 60.79944516 5.23687219 64.109375 6.203125 C64.109375 7.193125 64.109375 8.183125 64.109375 9.203125 C62.65087891 10.62255859 62.65087891 10.62255859 60.5859375 12.1015625 C59.82120117 12.65674561 59.05646484 13.21192871 58.26855469 13.78393555 C57.43227539 14.37601807 56.59599609 14.96810059 55.734375 15.578125 C54.44901855 16.50588745 54.44901855 16.50588745 53.13769531 17.45239258 C51.34840349 18.7424884 49.55602514 20.02831307 47.76074219 21.31005859 C44.52833282 23.61798698 41.31047187 25.94557974 38.09399414 28.27563477 C36.60892612 29.34891402 35.12114064 30.41844357 33.63061523 31.48413086 C29.97377882 34.10194145 26.36653125 36.75992577 22.82421875 39.53125 C22.14456055 40.05501221 21.46490234 40.57877441 20.76464844 41.1184082 C19.48657757 42.10708958 18.21947087 43.11017004 16.96582031 44.12963867 C15.24609375 45.44921875 15.24609375 45.44921875 12.109375 47.203125 C7.23559826 46.50687118 3.14441395 42.32553582 -0.640625 39.328125 C-6.47946013 34.77964017 -12.38003182 30.37144568 -18.453125 26.140625 C-26.74774589 20.35539064 -34.8362523 14.31707682 -42.890625 8.203125 C-42.560625 7.543125 -42.230625 6.883125 -41.890625 6.203125 C-39.71679688 5.53295898 -39.71679688 5.53295898 -36.859375 4.94921875 C-35.82039062 4.73458984 -34.78140625 4.51996094 -33.7109375 4.29882812 C-32.61523438 4.08162109 -31.51953125 3.86441406 -30.390625 3.640625 C-29.32585937 3.41955078 -28.26109375 3.19847656 -27.1640625 2.97070312 C-18.08435155 1.12464396 -9.26428551 0.05332817 0 0 Z " fill="#000000" transform="translate(244.890625,39.796875)"/>
<path d="M0 0 C22.44 0 44.88 0 68 0 C72.95 15.0046875 72.95 15.0046875 78 30.3125 C79.56621094 35.04847534 79.56621094 35.04847534 81.1640625 39.88012695 C81.98472738 42.37439581 82.80506267 44.86877314 83.625 47.36328125 C83.8401123 48.01153366 84.05522461 48.65978607 84.27685547 49.3276825 C84.91006177 51.23702605 85.53718082 53.14838505 86.1640625 55.05981445 C86.69700928 56.67530937 86.69700928 56.67530937 87.24072266 58.32344055 C88 61 88 61 88 64 C57.25639267 58.7434964 18.86014039 27.07041374 0.9609375 2.49609375 C0 1 0 1 0 0 Z " fill="#000000" transform="translate(89,393)"/>
<path d="M0 0 C2 1 2 1 3.0065155 3.40913391 C3.36038834 4.47850693 3.71426117 5.54787994 4.07885742 6.6496582 C4.68409492 8.46207756 4.68409492 8.46207756 5.30155945 10.31111145 C5.73666694 11.64084734 6.17129163 12.97074129 6.60546875 14.30078125 C7.05305118 15.65752329 7.50099811 17.01414513 7.94929504 18.37065125 C8.8882184 21.21802628 9.82133936 24.06722528 10.75073242 26.91772461 C11.94236846 30.57032824 13.150202 34.21733539 14.36272717 37.86304951 C15.29226405 40.66506456 16.21208447 43.47019667 17.12911415 46.27632713 C17.57044805 47.62219449 18.01504166 48.96699745 18.46294212 50.31069374 C19.08839708 52.19122084 19.69919788 54.0766027 20.30932617 55.9621582 C20.66081223 57.033918 21.01229828 58.1056778 21.37443542 59.20991516 C22.00174572 62.0077861 22.08328269 63.37815137 21 66 C19.34863281 67.48876953 19.34863281 67.48876953 17.203125 68.8828125 C16.41615234 69.40488281 15.62917969 69.92695313 14.81835938 70.46484375 C13.54702148 71.28662109 13.54702148 71.28662109 12.25 72.125 C10.49278755 73.29125682 8.73758161 74.46054241 6.984375 75.6328125 C6.12521484 76.20676758 5.26605469 76.78072266 4.38085938 77.37207031 C1.31591581 79.46774747 -1.58655667 81.6979269 -4.5 84 C-22.9047619 98.45238095 -22.9047619 98.45238095 -32 103 C-34.61211055 69.26023875 -18.42041223 27.78037779 0 0 Z " fill="#000000" transform="translate(72,140)"/>
<path d="M0 0 C20.93070917 23.86492074 34.3918769 69.76823348 33.140625 101.18359375 C33.09421875 101.78300781 33.0478125 102.38242188 33 103 C25.118262 98.28866897 17.78285642 92.96225729 10.42163086 87.48803711 C2.99091782 81.96793234 -4.55311819 76.62193773 -12.13476562 71.31201172 C-15.10196186 69.22487657 -18.05085001 67.11253878 -21 65 C-19.49279555 57.51294828 -17.29213276 50.37395388 -14.90234375 43.125 C-14.50801651 41.91932373 -14.11368927 40.71364746 -13.70741272 39.47143555 C-12.87819851 36.93940353 -12.04736623 34.40797808 -11.21362305 31.87744141 C-10.14374532 28.62966056 -9.0804811 25.37975979 -8.01923275 22.12915039 C-7.00423012 19.02257374 -5.98439808 15.91758525 -4.96484375 12.8125 C-4.58255112 11.64283691 -4.20025848 10.47317383 -3.80638123 9.26806641 C-3.4525386 8.1960498 -3.09869598 7.1240332 -2.73413086 6.01953125 C-2.42261581 5.07182861 -2.11110077 4.12412598 -1.79014587 3.14770508 C-1 1 -1 1 0 0 Z " fill="#000000" transform="translate(439,140)"/>
</svg>
