<?xml version="1.0" encoding="UTF-8"?>
<svg version="1.1" xmlns="http://www.w3.org/2000/svg" width="512" height="512">
<path d="M0 0 C1.32976868 0.00273422 1.32976868 0.00273422 2.68640137 0.00552368 C15.47689923 0.04985291 27.86248012 0.44265599 40.375 3.3125 C41.17631348 3.48410645 41.97762695 3.65571289 42.80322266 3.83251953 C79.60388884 11.78385096 112.26073987 29.24296494 139.375 55.3125 C139.97634766 55.88661621 140.57769531 56.46073242 141.19726562 57.05224609 C149.7582384 65.26562064 157.54439247 73.59507996 164.375 83.3125 C164.78556641 83.88935547 165.19613281 84.46621094 165.61914062 85.06054688 C186.21600616 114.1998912 200.24080376 150.74620666 200.61328125 186.74609375 C200.6230751 187.53283478 200.63286896 188.31957581 200.64295959 189.13015747 C200.82145879 207.20778298 200.43322189 224.60161804 196.375 242.3125 C196.17132813 243.23160156 195.96765625 244.15070313 195.7578125 245.09765625 C184.09401259 296.28877807 151.74139571 342.30514209 107.375 370.3125 C84.99601851 384.15562491 51.36902489 400.77362987 24.375 398.3125 C22.32823569 396.90744019 22.32823569 396.90744019 20.28711796 394.89013672 C19.5026155 394.12669008 18.71811304 393.36324345 17.90983778 392.57666206 C17.05924723 391.72378546 16.20865667 390.87090885 15.33229065 389.9921875 C14.42005877 389.09692793 13.50782689 388.20166836 12.56795162 387.27927971 C10.03284316 384.79036931 7.51362972 382.28588594 4.99681008 379.77850103 C2.28102318 377.07812634 -0.4488642 374.39206816 -3.17671204 371.70388794 C-9.76319859 365.20669845 -16.32563937 358.6854732 -22.88582644 352.16174793 C-25.97606527 349.08981427 -29.06898125 346.02057889 -32.16166878 342.95111084 C-42.44244136 332.7457641 -52.71753048 322.53475315 -62.97489834 312.30587769 C-65.63680316 309.65148268 -68.29871257 306.99709227 -70.96069336 304.34277344 C-71.62230695 303.68305393 -72.28392054 303.02333441 -72.96558303 302.3436234 C-83.68270005 291.65929651 -94.43828964 281.01460571 -105.21078371 270.38614416 C-116.27136782 259.47224976 -127.29776874 248.52476072 -138.29121262 237.54323196 C-144.46408261 231.37868776 -150.65081634 225.22964033 -156.87579155 219.11767578 C-162.17779073 213.91167362 -167.44790168 208.67584772 -172.67926239 203.39882839 C-175.34864346 200.70801553 -178.0303302 198.03373083 -180.75336075 195.39712906 C-197.91827045 178.747495 -197.91827045 178.747495 -198.44810677 171.59393311 C-198.21946591 167.5753063 -197.06883256 164.06643753 -195.625 160.3125 C-195.16940734 158.33913552 -194.7341283 156.36074322 -194.3359375 154.375 C-193.90060798 152.68489714 -193.45562298 150.99724543 -193 149.3125 C-192.77054687 148.43078125 -192.54109375 147.5490625 -192.3046875 146.640625 C-191.75379753 144.52888011 -191.19082154 142.42029321 -190.625 140.3125 C-189.63242188 140.77140625 -188.63984375 141.2303125 -187.6171875 141.703125 C-164.20214673 152.34632535 -138.57315752 156.94777284 -113.625 148.3125 C-101.65004219 143.77664156 -91.23501013 137.75055767 -81.625 129.3125 C-80.88121094 128.66796875 -80.13742188 128.0234375 -79.37109375 127.359375 C-63.80191813 112.85658127 -53.208027 89.76742699 -52.38671875 68.546875 C-51.94635094 46.95502933 -56.9742783 30.4379424 -66.625 11.3125 C-58.69317532 8.45797902 -50.79189537 5.96167979 -42.5625 4.125 C-41.88074707 3.97063477 -41.19899414 3.81626953 -40.49658203 3.65722656 C-38.21223262 3.16616334 -35.9240084 2.7298345 -33.625 2.3125 C-32.63983398 2.13227295 -31.65466797 1.9520459 -30.63964844 1.76635742 C-20.41769224 0.09376859 -10.33601112 -0.04400919 0 0 Z " fill="#000000" transform="translate(311.625,-0.3125)"/>
<path d="M0 0 C6.85907115 5.61937662 13.03009491 11.90314511 19.27734375 18.1796875 C20.45539258 19.35960447 21.63366466 20.53929858 22.81214905 21.71878052 C25.89347142 24.80389691 28.97177716 27.89200589 32.04943848 30.98077393 C35.19844034 34.14005733 38.35032171 37.29646516 41.50195312 40.453125 C47.6707711 46.63262527 53.83640129 52.8152939 60 59 C55.81232776 66.493201 55.81232776 66.493201 53.3359375 69.5078125 C52.85882324 70.0951416 52.38170898 70.6824707 51.89013672 71.28759766 C51.3901416 71.89394043 50.89014648 72.5002832 50.375 73.125 C49.30109185 74.44711193 48.22819131 75.77004289 47.15625 77.09375 C46.62386719 77.74988281 46.09148437 78.40601563 45.54296875 79.08203125 C43.27795961 81.89752363 41.07057851 84.75520945 38.875 87.625 C38.47071777 88.15303223 38.06643555 88.68106445 37.64990234 89.22509766 C36.8387823 90.28549349 36.02807015 91.34620145 35.21777344 92.40722656 C33.15155323 95.10971666 31.07524671 97.80443937 29 100.5 C26.54518674 103.69011502 24.09135569 106.88096535 21.640625 110.07421875 C20.02110557 112.18329879 18.39883438 114.29000384 16.7734375 116.39453125 C14.67886344 119.10883374 12.6070924 121.83964777 10.5390625 124.57421875 C9.31792715 126.17464615 8.0965742 127.77490755 6.875 129.375 C6.31329102 130.12418701 5.75158203 130.87337402 5.17285156 131.64526367 C-0.25487398 138.72007211 -6.10998589 144.51808232 -14.25 148.375 C-15.74273437 149.09816406 -15.74273437 149.09816406 -17.265625 149.8359375 C-27.53776907 154.20893598 -42.13206566 153.46551714 -52.32421875 149.36328125 C-67.72324299 141.517647 -83.97365826 125.68174079 -90.4375 109.5 C-93.92763757 97.77555518 -93.53189787 83.98521764 -88 73 C-82.93256974 64.19290365 -76.01465022 58.08162602 -68 52 C-67.3802832 51.52949219 -66.76056641 51.05898438 -66.12207031 50.57421875 C-62.76656552 48.03708894 -59.39628241 45.52047246 -56.01953125 43.01171875 C-52.2363059 40.19176008 -48.51418218 37.30087432 -44.8125 34.375 C-39.96519244 30.54360336 -35.09308569 26.74877293 -30.18823242 22.9909668 C-26.92414867 20.48736974 -23.67256446 17.96852592 -20.4296875 15.4375 C-19.23714355 14.50707886 -19.23714355 14.50707886 -18.02050781 13.55786133 C-16.46423093 12.34275358 -14.90884095 11.12650875 -13.35449219 9.90893555 C-8.97667217 6.49187429 -4.54300452 3.19448734 0 0 Z " fill="#000000" transform="translate(92,360)"/>
<path d="M0 0 C5.05069429 4.23240053 9.79489477 8.65020936 14.44749451 13.31378174 C15.16401359 14.02803527 15.88053268 14.74228879 16.61876446 15.47818637 C19.00399352 17.85711682 21.38566626 20.23957484 23.76733398 22.62207031 C25.48243125 24.33417373 27.19773296 26.04607238 28.91322327 27.75778198 C33.07792816 31.91458531 37.2402548 36.0737602 41.40128993 40.23423627 C44.78141837 43.61388861 48.1623373 46.99274815 51.54380989 50.3710556 C61.1334686 59.9519207 70.72104127 69.53486625 80.30592858 79.12050477 C80.82170799 79.63632413 81.3374874 80.1521435 81.86889648 80.68359375 C82.38530494 81.20004309 82.9017134 81.71649243 83.4337706 82.24859175 C91.82280099 90.63802952 100.21682195 99.02245438 108.61308955 107.40464845 C117.23681601 116.01403391 125.85683183 124.6271191 134.47295815 133.24411082 C139.30956975 138.0810549 144.14772091 142.91643592 148.98986626 147.74784088 C153.53591326 152.28386826 158.07681881 156.82500013 162.6142025 161.36969376 C164.28467826 163.04122096 165.95688192 164.7110233 167.63088608 166.37901688 C169.90567787 168.64616532 172.17430171 170.91930604 174.44139099 173.19415283 C175.11364116 173.86125943 175.78589132 174.52836604 176.4785127 175.21568799 C181 179.77172764 181 179.77172764 181 182 C160.74623851 179.7944111 141.58175782 175.35545316 122.46826172 168.27246094 C107.25005891 162.65747993 89.00579938 163.14134509 74.16162109 169.828125 C69.50235033 172.08656504 64.86103592 174.43480343 60.88671875 177.77734375 C59 179 59 179 57.2155304 178.88362122 C53.99819888 177.6004511 52.12075991 175.51858301 49.66479492 173.0847168 C49.14566528 172.5740567 48.62653564 172.06339661 48.0916748 171.53726196 C46.38004804 169.84901302 44.67982904 168.14980841 42.98046875 166.44921875 C41.79581166 165.27166085 40.61085571 164.09440355 39.4256134 162.91743469 C36.94494364 160.45021019 34.4702927 157.97712644 31.99926758 155.50024414 C28.82704855 152.32211781 25.63693363 149.16264893 22.44164562 146.00773907 C19.99069809 143.58259345 17.55126449 141.14611937 15.11501503 138.70621681 C13.94314 137.53603892 12.76725996 136.36985801 11.58739281 135.20773888 C9.94220011 133.58459529 8.31356133 131.9464672 6.68823242 130.3034668 C5.75653732 129.37382614 4.82484222 128.44418549 3.86491394 127.4863739 C2 125 2 125 2.10029602 122.86018372 C3.50649635 119.95279306 5.14406358 117.19853081 6.8125 114.4375 C15.49072106 99.66770519 19.08651698 82.50838923 15.09375 65.54296875 C13.92174518 61.29580891 12.49348033 57.14339096 11 53 C7.33506522 42.76412054 4.29829099 32.67173813 2.125 22 C1.90972656 20.96166016 1.69445312 19.92332031 1.47265625 18.85351562 C0.23662428 12.48099316 -0.2211579 6.48108206 0 0 Z " fill="#000000" transform="translate(114,217)"/>
<path d="M0 0 C13.26189836 10.66580051 22.67661563 25.05072825 24.73535156 42.13427734 C26.35333091 60.09752528 22.50100387 75.47780031 11.32910156 89.76318359 C10.60722656 90.77380859 9.88535156 91.78443359 9.14160156 92.82568359 C1.99176702 101.05032987 -7.52829492 106.23337884 -17.67089844 109.76318359 C-18.78464844 110.17568359 -19.89839844 110.58818359 -21.04589844 111.01318359 C-39.7577846 114.88460832 -57.47102089 111.48935122 -73.53808594 101.20849609 C-86.73720401 92.26403879 -93.84167823 79.0349135 -97.48339844 63.76318359 C-100.89541393 45.96221135 -97.42696032 28.94680154 -87.67089844 13.76318359 C-77.82909653 -0.28246245 -63.37194688 -7.51849921 -46.73730469 -10.81884766 C-30.26849987 -13.06364016 -13.54373344 -10.02521239 0 0 Z " fill="#000000" transform="translate(205.6708984375,11.23681640625)"/>
</svg>
