<?xml version="1.0" encoding="UTF-8"?>
<svg version="1.1" xmlns="http://www.w3.org/2000/svg" width="512" height="512">
<path d="M0 0 C0.90234375 0.30035156 1.8046875 0.60070313 2.734375 0.91015625 C21.99551145 7.81904215 37.37427997 23.75652101 46.2668457 41.81494141 C56.13745642 62.86595989 56.58114982 85.95153632 48.75 107.6875 C40.6852248 127.20521039 25.88221375 144.44164205 6.0859375 152.671875 C4.68506583 153.22581764 3.28138999 153.77272126 1.875 154.3125 C1.21822266 154.56717041 0.56144531 154.82184082 -0.11523438 155.08422852 C-4.74571213 156.78133793 -9.09016784 157.53526088 -14 158 C-13.690625 158.99 -13.38125 159.98 -13.0625 161 C-12.72982046 163.48830718 -12.73602019 164.5938905 -14.11865234 166.72094727 C-14.66473145 167.30932373 -15.21081055 167.8977002 -15.7734375 168.50390625 C-16.41450439 169.19887207 -17.05557129 169.89383789 -17.71606445 170.60986328 C-18.46976318 171.3986084 -19.22346191 172.18735352 -20 173 C-21.30553833 174.37841064 -21.30553833 174.37841064 -22.63745117 175.78466797 C-25.07455836 178.34035309 -27.54280292 180.86353312 -30.02514648 183.37524414 C-31.05720855 184.42402375 -32.08385336 185.47815969 -33.10522461 186.53735352 C-34.60109509 188.08800034 -36.11277935 189.62152756 -37.62890625 191.15234375 C-38.51650635 192.05976318 -39.40410645 192.96718262 -40.31860352 193.90209961 C-43.35653178 196.27894725 -45.17285029 196.85655949 -49 197 C-51.03144641 196.06553465 -53.03533587 195.06775224 -55 194 C-59.90815824 194 -61.28404536 195.70162269 -64.5625 198.9375 C-65.63439288 199.9594763 -66.70865748 200.97897021 -67.78515625 201.99609375 C-68.32414551 202.50640137 -68.86313477 203.01670898 -69.41845703 203.54248047 C-71.69274963 205.63842471 -74.08520385 207.56886404 -76.5 209.5 C-81.01858176 213.1356405 -85.27983329 216.96836402 -89.52172852 220.91625977 C-92.7329905 223.88715628 -96.02627815 226.69961077 -99.4375 229.4375 C-104.21621628 233.28110057 -108.69157687 237.36960164 -113.16381836 241.55834961 C-117.35329526 245.4599667 -121.72172936 249.07324797 -126.1875 252.65625 C-129.39849805 255.33208171 -132.45029137 258.14358276 -135.5 261 C-140.23866464 265.43832674 -145.12119326 269.5914225 -150.1875 273.65625 C-153.39849805 276.33208171 -156.45029137 279.14358276 -159.5 282 C-164.23866464 286.43832674 -169.12119326 290.5914225 -174.1875 294.65625 C-177.39849934 297.33208278 -180.45027636 300.14359707 -183.5 303 C-188.26088994 307.45874444 -193.1646782 311.6379783 -198.25390625 315.72265625 C-201.26319431 318.21826783 -204.13932121 320.83771794 -207 323.5 C-211.66978603 327.84382908 -216.48325767 331.93921159 -221.46875 335.921875 C-223.83074809 337.86104627 -226.03127065 339.90074069 -228.25 342 C-231.7057974 345.03884025 -234.26571786 346.17865216 -239 346 C-242.73421143 344.08956918 -245.49296766 341.74454359 -248.42578125 338.76953125 C-249.61977539 337.56586914 -249.61977539 337.56586914 -250.83789062 336.33789062 C-252.06282227 335.08782227 -252.06282227 335.08782227 -253.3125 333.8125 C-254.14845703 332.96751953 -254.98441406 332.12253906 -255.84570312 331.25195312 C-257.90173598 329.17242275 -259.95294296 327.08836037 -262 325 C-267.97321808 329.93987655 -273.52570043 335.27361561 -279.02514648 340.72998047 C-280.04738364 341.74069168 -281.07407334 342.74691995 -282.10522461 343.74853516 C-291.98049034 353.34236918 -299.75820369 362.64067077 -300.3125 376.875 C-300.04549665 387.11536376 -296.33164809 394.35472555 -289.40625 401.6875 C-282.74145543 407.97504204 -275.57821628 410.22545717 -266.5 410.5 C-252.08791926 410.06458971 -243.12533191 402.46538877 -233.37892151 392.59251404 C-232.65564743 391.86812655 -231.93237336 391.14373906 -231.18718189 390.39740044 C-228.7821882 387.98636958 -226.38443257 385.56827023 -223.98657227 383.15014648 C-222.25663694 381.41309342 -220.52622696 379.67651297 -218.79537964 377.94036865 C-215.07733433 374.20925034 -211.3622434 370.47522728 -207.64956856 366.73876762 C-202.27399243 361.3291187 -196.89089596 355.92700095 -191.50559413 350.52703572 C-182.75670513 341.75429285 -174.01083918 332.97854422 -165.26831055 324.19946289 C-164.74585654 323.67482864 -164.22340253 323.15019438 -163.68511658 322.60966212 C-156.2691312 315.16244805 -148.85614049 307.7122601 -141.44433575 300.26088554 C-140.92218493 299.7359481 -140.40003412 299.21101066 -139.86206055 298.67016602 C-139.34055275 298.14587116 -138.81904495 297.62157629 -138.28173388 297.08139371 C-129.57520134 288.32873654 -120.86091055 279.58385105 -112.14026684 270.84525353 C-106.7691593 265.46246632 -101.40463992 260.07327706 -96.04852723 254.67556835 C-91.94213579 250.53843232 -87.82534056 246.41175783 -83.70467758 242.28883362 C-82.01978751 240.5996559 -80.33833296 238.90704316 -78.66063118 237.21072578 C-76.36563705 234.89126152 -74.0585123 232.58455644 -71.74806213 230.28050232 C-70.76252416 229.27544094 -70.76252416 229.27544094 -69.75707632 228.25007528 C-61.69664053 220.27581758 -52.86743679 216.08549727 -41.5 215.75 C-31.33046988 216.05014238 -22.74654654 219.25646849 -15.25 226.25 C-8.1028494 233.91121479 -4.39823388 243.31612612 -4.75390625 253.83984375 C-5.87849966 263.71127479 -9.5808493 271.47037053 -16.5 278.5625 C-19.67615363 280.38878834 -21.38907827 280.60182029 -25 280 C-27.875 278.5625 -27.875 278.5625 -30 276 C-30.73912481 272.85871954 -30.70414882 270.14666504 -30 267 C-27.625 263.875 -27.625 263.875 -25 261 C-22.59928041 255.10732465 -22.44156407 249.97280041 -24.75390625 244.078125 C-27.30546924 239.08175898 -30.74813211 236.25878757 -35.9375 234.25 C-41.90969324 233.52609779 -46.7945104 233.82146147 -52 237 C-57.52690833 241.39947732 -62.53334096 246.39668706 -67.50045776 251.40711975 C-68.56593454 252.47554829 -68.56593454 252.47554829 -69.6529361 253.56556123 C-72.0117465 255.9320368 -74.36692999 258.30208854 -76.72216797 260.67211914 C-78.42113923 262.37792699 -80.12036469 264.0834817 -81.81982422 265.7888031 C-85.46925801 269.45153084 -89.11726672 273.11566999 -92.76427841 276.7808094 C-98.5350564 282.57991813 -104.31171361 288.37315131 -110.08938599 294.16539001 C-112.0703349 296.15146213 -114.05125832 298.13755968 -116.03218269 300.12365627 C-116.52710839 300.619868 -117.02203409 301.11607973 -117.53195753 301.62732818 C-123.15377941 307.26385558 -128.7747081 312.90127315 -134.39501953 318.53930664 C-134.90823939 319.05414124 -135.42145924 319.56897583 -135.95023121 320.09941148 C-144.26967512 328.44540009 -152.58348767 336.79697981 -160.8956971 345.15017278 C-169.44734214 353.74361975 -178.0066885 362.32934417 -186.57274354 370.90842718 C-191.37511212 375.71860043 -196.17373244 380.53239541 -200.96313095 385.35548592 C-205.46732304 389.89078483 -209.98077746 394.4166555 -214.50141907 398.93555641 C-216.15524189 400.59206928 -217.80564652 402.2520032 -219.45228958 403.91565323 C-221.70750616 406.19314131 -223.97489067 408.45781161 -226.24557495 410.71986389 C-226.88801458 411.37463701 -227.53045421 412.02941013 -228.19236171 412.70402485 C-238.91357292 423.29840366 -251.40297236 428.35254346 -266.375 428.5625 C-281.50619761 428.43135492 -292.73731976 423.38918584 -303.98828125 413.19921875 C-314.4522575 402.36401497 -318.5030448 388.25100734 -318.25 373.55859375 C-316.72588242 351.86373256 -302.45140216 339.27858568 -287.9375 324.875 C-286.77385247 323.71638288 -285.61043954 322.5575301 -284.44726562 321.3984375 C-281.63419935 318.59624236 -278.81800626 315.79722686 -276 313 C-277.45042909 309.65415036 -279.27738825 307.49945964 -281.87890625 304.9609375 C-282.63494141 304.21585937 -283.39097656 303.47078125 -284.16992188 302.703125 C-284.95947266 301.93484375 -285.74902344 301.1665625 -286.5625 300.375 C-288.12847891 298.84336831 -289.69238939 297.30961805 -291.25390625 295.7734375 C-292.29526733 294.75902588 -292.29526733 294.75902588 -293.35766602 293.72412109 C-296.17309982 290.76848061 -296.43010627 288.19851866 -296.37060547 284.13964844 C-295.69614759 280.24574275 -293.22152987 277.90523921 -290.5625 275.125 C-289.742052 274.21947388 -289.742052 274.21947388 -288.9050293 273.2956543 C-287.28649373 271.51439003 -285.64519009 269.75661526 -284 268 C-282.43402468 266.27398004 -280.87109197 264.54519001 -279.3125 262.8125 C-278.59320313 262.02101563 -277.87390625 261.22953125 -277.1328125 260.4140625 C-274.90700396 257.89474074 -272.7938917 255.30727749 -270.6875 252.6875 C-266.79679292 247.87334412 -262.66999534 243.35075666 -258.44213867 238.83666992 C-255.32475274 235.48935757 -252.36440833 232.07013212 -249.5 228.5 C-245.68005989 223.73891522 -241.61061181 219.28726975 -237.44140625 214.8359375 C-234.32431446 211.48883131 -231.36418887 208.06985859 -228.5 204.5 C-224.68005989 199.73891522 -220.61061181 195.28726975 -216.44140625 190.8359375 C-213.32431446 187.48883131 -210.36418887 184.06985859 -207.5 180.5 C-204.15698041 176.3333379 -200.64884863 172.39580188 -197 168.5 C-192.54125556 163.73911006 -188.3620217 158.8353218 -184.27734375 153.74609375 C-181.33922549 150.20321701 -178.21768822 146.84558228 -175.08349609 143.47802734 C-172.11269934 140.26683127 -169.30031679 136.97363159 -166.5625 133.5625 C-162.21355679 128.15950413 -157.5494078 123.10600504 -152.8203125 118.0390625 C-149.45969163 114.43501637 -146.20867595 110.73968923 -143 107 C-143.99 105.7625 -143.99 105.7625 -145 104.5 C-147.26560541 101.66799324 -147.46769572 98.73233782 -147.41577148 95.16345215 C-146.61633477 91.00361161 -143.66162143 88.52361021 -140.71875 85.65625 C-140.07184204 85.00168823 -139.42493408 84.34712646 -138.75842285 83.67272949 C-137.38945772 82.2983362 -136.01040008 80.93393103 -134.62207031 79.57910156 C-132.50604434 77.50592195 -130.43610553 75.3935128 -128.3671875 73.2734375 C-127.02859909 71.94013584 -125.68753099 70.60931812 -124.34375 69.28125 C-123.7288269 68.65013306 -123.11390381 68.01901611 -122.48034668 67.36877441 C-119.22567513 64.25088866 -117.15615877 62.62314206 -112.54101562 62.60742188 C-111.37248047 62.73697266 -110.20394531 62.86652344 -109 63 C-108.814375 61.87078125 -108.814375 61.87078125 -108.625 60.71875 C-104.64047452 40.19844376 -92.13697759 21.07260107 -74.84375 9.28198242 C-68.24598128 4.99650737 -61.46121526 1.52670636 -54 -1 C-53.10152344 -1.31839844 -52.20304687 -1.63679688 -51.27734375 -1.96484375 C-35.20235889 -6.65969128 -15.61252508 -5.7846407 0 0 Z M-116.8203125 86.625 C-117.92696886 87.74498957 -119.0283192 88.87024066 -120.125 90 C-120.96998047 90.85851562 -120.96998047 90.85851562 -121.83203125 91.734375 C-123.22586268 93.15183069 -124.61351636 94.57535626 -126 96 C-124.65972043 98.98093009 -123.18468111 101.06345315 -120.87423706 103.36627197 C-119.91089951 104.33373352 -119.91089951 104.33373352 -118.92810059 105.32073975 C-118.22463501 106.01701477 -117.52116943 106.71328979 -116.79638672 107.43066406 C-116.0548233 108.17251953 -115.31325989 108.914375 -114.54922485 109.67871094 C-112.09742329 112.12911939 -109.63861395 114.572368 -107.1796875 117.015625 C-105.47817175 118.71341057 -103.77709708 120.41163829 -102.07644653 122.11029053 C-97.59935194 126.57974916 -93.11628362 131.04316914 -88.63195801 135.50537109 C-84.05701531 140.05985468 -79.48772952 144.62000567 -74.91796875 149.1796875 C-65.95085005 158.12535692 -56.97760292 167.0648529 -48 176 C-46.87879843 175.0449028 -45.75843599 174.08882049 -44.63842773 173.13232422 C-44.01443588 172.6000119 -43.39044403 172.06769958 -42.74754333 171.51925659 C-40.76775864 169.79809702 -38.89845846 167.998427 -37.0625 166.125 C-36.04166667 165.08333333 -35.02083333 164.04166667 -34 163 C-38.21794323 157.96885483 -42.61617861 153.23531356 -47.25878906 148.59594727 C-47.95870972 147.892668 -48.65863037 147.18938873 -49.37976074 146.46479797 C-51.67242716 144.16270318 -53.96877953 141.86433103 -56.265625 139.56640625 C-57.86658958 137.96222643 -59.46747957 136.35797217 -61.06829834 134.75364685 C-64.41192165 131.40405482 -67.75758628 128.05651699 -71.10449219 124.71020508 C-75.40276056 120.41203889 -79.69407706 116.1070024 -83.98370743 111.80021763 C-87.28129342 108.49155053 -90.58337632 105.18740043 -93.88677216 101.88453484 C-95.47208825 100.29803535 -97.05577542 98.70990646 -98.63782501 97.12014961 C-100.84012549 94.90811603 -103.04859315 92.70243173 -105.25878906 90.49829102 C-105.91542542 89.83603516 -106.57206177 89.1737793 -107.24859619 88.49145508 C-111.74655417 83.37769185 -111.74655417 83.37769185 -116.8203125 86.625 Z " fill="#000000" transform="translate(388,44)"/>
</svg>
